<?xml version="1.0" encoding="UTF-8" standalone="no"?>
<svg
   width="800"
   height="600"
   version="1.1"
   id="svg45"
   sodipodi:docname="Visual Data Analysis Line Chart.svg"
   inkscape:version="1.3.2 (091e20e, 2023-11-25)"
   xmlns:inkscape="http://www.inkscape.org/namespaces/inkscape"
   xmlns:sodipodi="http://sodipodi.sourceforge.net/DTD/sodipodi-0.dtd"
   xmlns="http://www.w3.org/2000/svg"
   xmlns:svg="http://www.w3.org/2000/svg">
  <defs
     id="defs45" />
  <sodipodi:namedview
     id="namedview45"
     pagecolor="#ffffff"
     bordercolor="#000000"
     borderopacity="0.25"
     inkscape:showpageshadow="2"
     inkscape:pageopacity="0.0"
     inkscape:pagecheckerboard="0"
     inkscape:deskcolor="#d1d1d1"
     inkscape:zoom="0.47293686"
     inkscape:cx="259.01978"
     inkscape:cy="338.31154"
     inkscape:window-width="1312"
     inkscape:window-height="583"
     inkscape:window-x="182"
     inkscape:window-y="25"
     inkscape:window-maximized="0"
     inkscape:current-layer="svg45" />
  <g
     id="g36"
     transform="translate(-1.9416924)">
    <clipPath
       id="serieClipPath">
      <rect
         x="-50"
         y="-15"
         width="805"
         height="600"
         id="rect1" />
    </clipPath>
    <g
       id="g35">
      <g
         transform="translate(50,15)"
         clip-path="url(#serieClipPath)"
         id="g34">
        <g
           id="axis">
          <g
             transform="translate(0,560)"
             fill="none"
             font-size="10px"
             font-family="sans-serif"
             text-anchor="middle"
             id="g12">
            <path
               class="domain"
               stroke="currentColor"
               d="M 0.5,6 V 0.5 h 735 V 6"
               id="path1" />
            <g
               class="tick"
               opacity="1"
               transform="translate(0.5)"
               id="g1">
              <line
                 stroke="currentColor"
                 y2="6"
                 id="line1"
                 x1="0"
                 y1="0"
                 x2="0" />
              <text
                 fill="currentColor"
                 y="9"
                 dy="0.70999998em"
                 id="text1">1970</text>
            </g>
            <g
               class="tick"
               opacity="1"
               transform="translate(73.99195)"
               id="g2">
              <line
                 stroke="currentColor"
                 y2="6"
                 id="line2"
                 x1="0"
                 y1="0"
                 x2="0" />
              <text
                 fill="currentColor"
                 y="9"
                 dy="0.70999998em"
                 id="text2">1975</text>
            </g>
            <g
               class="tick"
               opacity="1"
               transform="translate(147.4839)"
               id="g3">
              <line
                 stroke="currentColor"
                 y2="6"
                 id="line3"
                 x1="0"
                 y1="0"
                 x2="0" />
              <text
                 fill="currentColor"
                 y="9"
                 dy="0.70999998em"
                 id="text3">1980</text>
            </g>
            <g
               class="tick"
               opacity="1"
               transform="translate(221.0161)"
               id="g4">
              <line
                 stroke="currentColor"
                 y2="6"
                 id="line4"
                 x1="0"
                 y1="0"
                 x2="0" />
              <text
                 fill="currentColor"
                 y="9"
                 dy="0.70999998em"
                 id="text4">1985</text>
            </g>
            <g
               class="tick"
               opacity="1"
               transform="translate(294.50805)"
               id="g5">
              <line
                 stroke="currentColor"
                 y2="6"
                 id="line5"
                 x1="0"
                 y1="0"
                 x2="0" />
              <text
                 fill="currentColor"
                 y="9"
                 dy="0.70999998em"
                 id="text5">1990</text>
            </g>
            <g
               class="tick"
               opacity="1"
               transform="translate(368)"
               id="g6">
              <line
                 stroke="currentColor"
                 y2="6"
                 id="line6"
                 x1="0"
                 y1="0"
                 x2="0" />
              <text
                 fill="currentColor"
                 y="9"
                 dy="0.70999998em"
                 id="text6">1995</text>
            </g>
            <g
               class="tick"
               opacity="1"
               transform="translate(441.49195)"
               id="g7">
              <line
                 stroke="currentColor"
                 y2="6"
                 id="line7"
                 x1="0"
                 y1="0"
                 x2="0" />
              <text
                 fill="currentColor"
                 y="9"
                 dy="0.70999998em"
                 id="text7">2000</text>
            </g>
            <g
               class="tick"
               opacity="1"
               transform="translate(515.02415)"
               id="g8">
              <line
                 stroke="currentColor"
                 y2="6"
                 id="line8"
                 x1="0"
                 y1="0"
                 x2="0" />
              <text
                 fill="currentColor"
                 y="9"
                 dy="0.70999998em"
                 id="text8">2005</text>
            </g>
            <g
               class="tick"
               opacity="1"
               transform="translate(588.5161)"
               id="g9">
              <line
                 stroke="currentColor"
                 y2="6"
                 id="line9"
                 x1="0"
                 y1="0"
                 x2="0" />
              <text
                 fill="currentColor"
                 y="9"
                 dy="0.70999998em"
                 id="text9">2010</text>
            </g>
            <g
               class="tick"
               opacity="1"
               transform="translate(662.00805)"
               id="g10">
              <line
                 stroke="currentColor"
                 y2="6"
                 id="line10"
                 x1="0"
                 y1="0"
                 x2="0" />
              <text
                 fill="currentColor"
                 y="9"
                 dy="0.70999998em"
                 id="text10">2015</text>
            </g>
            <g
               class="tick"
               opacity="1"
               transform="translate(735.5)"
               id="g11">
              <line
                 stroke="currentColor"
                 y2="6"
                 id="line11"
                 x1="0"
                 y1="0"
                 x2="0" />
              <text
                 fill="currentColor"
                 y="9"
                 dy="0.70999998em"
                 id="text11">2020</text>
            </g>
            <text
               x="747.53949"
               text-anchor="end"
               style="font-weight:bold;font-size:12px;font-family:Arial, sans-serif;fill:#7b7b7b"
               id="text12"
               y="-3.971545">Year</text>
          </g>
          <g
             fill="none"
             font-size="10px"
             font-family="sans-serif"
             text-anchor="end"
             id="g28">
            <path
               class="domain"
               stroke="currentColor"
               d="M 0.5,560.5 V 0.5"
               id="path12" />
            <g
               class="tick"
               opacity="1"
               transform="translate(0,560.5)"
               id="g13">
              <line
                 stroke="currentColor"
                 x2="-6"
                 id="line12"
                 x1="0"
                 y1="0"
                 y2="0" />
              <text
                 fill="currentColor"
                 x="-9"
                 dy="0.31999999em"
                 id="text13">0</text>
            </g>
            <g
               class="tick"
               opacity="1"
               transform="translate(0,520.5)"
               id="g14">
              <line
                 stroke="currentColor"
                 x2="-6"
                 id="line13"
                 x1="0"
                 y1="0"
                 y2="0" />
              <text
                 fill="currentColor"
                 x="-9"
                 dy="0.31999999em"
                 id="text14">1,000</text>
            </g>
            <g
               class="tick"
               opacity="1"
               transform="translate(0,480.5)"
               id="g15">
              <line
                 stroke="currentColor"
                 x2="-6"
                 id="line14"
                 x1="0"
                 y1="0"
                 y2="0" />
              <text
                 fill="currentColor"
                 x="-9"
                 dy="0.31999999em"
                 id="text15">2,000</text>
            </g>
            <g
               class="tick"
               opacity="1"
               transform="translate(0,440.5)"
               id="g16">
              <line
                 stroke="currentColor"
                 x2="-6"
                 id="line15"
                 x1="0"
                 y1="0"
                 y2="0" />
              <text
                 fill="currentColor"
                 x="-9"
                 dy="0.31999999em"
                 id="text16">3,000</text>
            </g>
            <g
               class="tick"
               opacity="1"
               transform="translate(0,400.5)"
               id="g17">
              <line
                 stroke="currentColor"
                 x2="-6"
                 id="line16"
                 x1="0"
                 y1="0"
                 y2="0" />
              <text
                 fill="currentColor"
                 x="-9"
                 dy="0.31999999em"
                 id="text17">4,000</text>
            </g>
            <g
               class="tick"
               opacity="1"
               transform="translate(0,360.5)"
               id="g18">
              <line
                 stroke="currentColor"
                 x2="-6"
                 id="line17"
                 x1="0"
                 y1="0"
                 y2="0" />
              <text
                 fill="currentColor"
                 x="-9"
                 dy="0.31999999em"
                 id="text18">5,000</text>
            </g>
            <g
               class="tick"
               opacity="1"
               transform="translate(0,320.5)"
               id="g19">
              <line
                 stroke="currentColor"
                 x2="-6"
                 id="line18"
                 x1="0"
                 y1="0"
                 y2="0" />
              <text
                 fill="currentColor"
                 x="-9"
                 dy="0.31999999em"
                 id="text19">6,000</text>
            </g>
            <g
               class="tick"
               opacity="1"
               transform="translate(0,280.5)"
               id="g20">
              <line
                 stroke="currentColor"
                 x2="-6"
                 id="line19"
                 x1="0"
                 y1="0"
                 y2="0" />
              <text
                 fill="currentColor"
                 x="-9"
                 dy="0.31999999em"
                 id="text20">7,000</text>
            </g>
            <g
               class="tick"
               opacity="1"
               transform="translate(0,240.5)"
               id="g21">
              <line
                 stroke="currentColor"
                 x2="-6"
                 id="line20"
                 x1="0"
                 y1="0"
                 y2="0" />
              <text
                 fill="currentColor"
                 x="-9"
                 dy="0.31999999em"
                 id="text21">8,000</text>
            </g>
            <g
               class="tick"
               opacity="1"
               transform="translate(0,200.5)"
               id="g22">
              <line
                 stroke="currentColor"
                 x2="-6"
                 id="line21"
                 x1="0"
                 y1="0"
                 y2="0" />
              <text
                 fill="currentColor"
                 x="-9"
                 dy="0.31999999em"
                 id="text22">9,000</text>
            </g>
            <g
               class="tick"
               opacity="1"
               transform="translate(0,160.5)"
               id="g23">
              <line
                 stroke="currentColor"
                 x2="-6"
                 id="line22"
                 x1="0"
                 y1="0"
                 y2="0" />
              <text
                 fill="currentColor"
                 x="-9"
                 dy="0.31999999em"
                 id="text23">10,000</text>
            </g>
            <g
               class="tick"
               opacity="1"
               transform="translate(0,120.5)"
               id="g24">
              <line
                 stroke="currentColor"
                 x2="-6"
                 id="line23"
                 x1="0"
                 y1="0"
                 y2="0" />
              <text
                 fill="currentColor"
                 x="-9"
                 dy="0.31999999em"
                 id="text24">11,000</text>
            </g>
            <g
               class="tick"
               opacity="1"
               transform="translate(0,80.5)"
               id="g25">
              <line
                 stroke="currentColor"
                 x2="-6"
                 id="line24"
                 x1="0"
                 y1="0"
                 y2="0" />
              <text
                 fill="currentColor"
                 x="-9"
                 dy="0.31999999em"
                 id="text25">12,000</text>
            </g>
            <g
               class="tick"
               opacity="1"
               transform="translate(0,40.5)"
               id="g26">
              <line
                 stroke="currentColor"
                 x2="-6"
                 id="line25"
                 x1="0"
                 y1="0"
                 y2="0" />
              <text
                 fill="currentColor"
                 x="-9"
                 dy="0.31999999em"
                 id="text26">13,000</text>
            </g>
            <g
               class="tick"
               opacity="1"
               transform="translate(0,0.5)"
               id="g27">
              <line
                 stroke="currentColor"
                 x2="-6"
                 id="line26"
                 x1="0"
                 y1="0"
                 y2="0" />
              <text
                 fill="currentColor"
                 x="-9"
                 dy="0.31999999em"
                 id="text27">14,000</text>
            </g>
            <text
               x="4"
               text-anchor="start"
               dominant-baseline="hanging"
               style="font-weight:bold;font-size:12px;font-family:Arial, sans-serif;fill:#7b7b7b"
               id="text28">Revenue in Millions</text>
          </g>
        </g>
        <g
           id="viz">
          <g
             id="Tape">
            <path
               d="m 44.111269,536.776 14.690341,-2.764 14.69034,-1.692 14.690341,-5.48 14.730589,-9.264 14.69034,-13.488 14.69034,5.316 14.69034,1.316 14.73059,-5.752 14.69034,-1.788 14.69034,-15.616 14.69034,-22.92 14.73059,-1.104 14.69034,-3.52 14.69034,-18.98 14.69034,-18.736 14.73059,-3.92 14.69034,-7.596 14.69034,19.212 14.69034,-6.604 14.73059,8.032 14.69034,-1.48 14.69034,28.456 14.69034,17.812 14.73059,17.536 14.69034,5.676 14.69034,16.188 14.69034,19.16 14.73059,10.688 14.69034,6.144 14.69034,4.068 14.69034,3.376 14.73059,0.424 14.69034,0.376 14.69034,0.028 14.69034,0.084"
               stroke="#69bda9"
               fill="none"
               id="path28" />
            <text
               font-family="sans-serif"
               font-size="10px"
               class="labels"
               x="282.90762"
               y="408.46548"
               dx="0"
               dy="-4"
               text-anchor="middle"
               id="text29">Tape</text>
          </g>
          <g
             id="Disc">
            <path
               d="m 191.09517,559.312 14.69034,-3.444 14.73059,-11.448 14.69034,-21.624 14.69034,-26.54 14.69034,-20.244 14.73059,-19.52 14.69034,-34.796 14.69034,-36.608 14.69034,-39.952 14.73059,-47.424 14.69034,-78.536 14.69034,-38.708 14.69034,-25.22 14.73059,-2.76 14.69034,-57.656 14.69034,-56.38 14.69034,-12.74 14.73059,14.736 14.69034,37.004 14.69034,30.74 14.69034,-7.316 14.73059,37.48 14.69034,46.212 14.69034,76.708 14.69034,79.608 14.73059,46.144 14.69034,37.212 14.69034,11.532 14.69034,24.62071 14.73059,13.83362 14.69034,14.54852 14.69034,13.33581 14.69034,12.59995 14.73059,2.9033 14.69034,14.41003 14.69034,3.37107"
               stroke="#9e0142"
               fill="none"
               id="path29" />
            <text
               font-family="sans-serif"
               font-size="10px"
               class="labels"
               x="440.99194"
               y="25.712"
               dx="0"
               dy="-4"
               text-anchor="middle"
               id="text30">Disc</text>
          </g>
          <g
             id="Download">
            <path
               d="m 499.79356,552.66 14.73059,-29.632 14.69034,-29.028 14.69034,-29.696 14.69034,-11.74 14.73059,1.036 14.69034,-1.336 14.69034,-8.336 14.69034,-4.57712 14.73059,3.83709 14.69034,14.68724 14.69034,9.69808 14.69034,18.56623 14.73059,17.77207 14.69034,14.60443 14.69034,7.31838"
               stroke="#f0704a"
               fill="none"
               id="path30" />
            <text
               font-family="sans-serif"
               font-size="10px"
               class="labels"
               x="633.72552"
               y="439.57401"
               dx="0"
               dy="-4"
               text-anchor="middle"
               id="text31">Download</text>
          </g>
          <g
             id="Other">
            <path
               d="m 279.31771,555.384 14.69034,-2.276 14.69034,2.168 14.69034,-1.572 14.73059,-2.236 14.69034,-0.712 14.69034,0.432 14.69034,-0.632 14.73059,-3.512 14.69034,-7.364 14.69034,5.252 14.69034,3.792 14.73059,-2.132 14.69034,1.532 14.69034,-4.44 14.69034,-8.232 14.73059,-0.028 14.69034,6.36 14.69034,-1.396 14.69034,10.368 14.73059,-7.504 14.69034,1.804 14.69034,0.924 14.69034,1.57806 14.73059,0.35609 14.69034,0.72022 14.69034,0.0662 14.69034,0.19779 14.73059,0.0789 14.69034,-1.71159 14.69034,0.46943"
               stroke="#8c6d21"
               fill="none"
               id="path31" />
            <text
               font-family="sans-serif"
               font-size="10px"
               class="labels"
               x="479.32294"
               y="540.6087"
               dx="0"
               dy="-4"
               text-anchor="middle"
               id="text32">Other</text>
          </g>
          <g
             id="Streaming">
            <path
               d="m 499.79356,559.724 14.73059,-6.508 14.69034,-2.776 14.69034,-1.248 14.69034,-2.048 14.73059,-1.612 14.69034,-3.996 14.69034,-7.68 14.69034,-15.16872 14.73059,-16.87119 14.69034,-14.91465 14.69034,-20.1534 14.69034,-65.2303 14.73059,-68.09951 14.69034,-68.08894 14.69034,-58.58171"
               stroke="#a9d025"
               fill="none"
               id="path32" />
            <text
               font-family="sans-serif"
               font-size="10px"
               class="labels"
               x="720.30963"
               y="206.74759"
               dx="0"
               dy="-4"
               text-anchor="middle"
               id="text33">Streaming</text>
          </g>
          <g
             id="Vinyl">
            <path
               d="M 44.111269,502.56 58.80161,498 l 14.69034,-5.86 14.690341,-8.464 14.730589,-21.284 14.69034,-11.736 14.69034,12.92 14.69034,-1.576 14.73059,-5.924 14.69034,15.6 14.69034,9.992 14.69034,4.432 14.73059,11.44 14.69034,14.016 14.69034,8.588 14.69034,11.352 14.73059,15.036 14.69034,6.232 14.69034,3.504 14.69034,0.536 14.73059,0.724 14.69034,-0.128 14.69034,-0.272 14.69034,-0.5 14.73059,0.616 14.69034,0.368 h 14.69034 l 14.69034,0.228 14.73059,-0.192 14.69034,0.536 14.69034,0.088 14.69034,0.16 14.73059,0.472 14.69034,0.072 14.69034,-0.052 14.69034,-1.308 14.73059,-0.268 14.69034,-0.996 14.69034,-1.312 14.69034,-1.65864 14.73059,-1.93008 14.69034,-1.42513 14.69034,-3.59146 14.69034,-0.84715 14.73059,-1.37112 14.69034,-1.19699 14.69034,-3.19482"
               stroke="#5e4fa2"
               fill="none"
               id="path33" />
            <text
               font-family="sans-serif"
               font-size="10px"
               class="labels"
               x="117.60322"
               y="450.65601"
               dx="0"
               dy="-4"
               text-anchor="middle"
               id="text34">Vinyl</text>
          </g>
        </g>
      </g>
      <text
         y="4"
         x="4"
         style="font-weight:bold;font-size:12px;font-family:Arial, sans-serif;dominant-baseline:hanging;fill:#000000"
         id="text35" />
    </g>
    <g
       id="grid">
      <rect
         x="0"
         y="0"
         width="805"
         height="600"
         fill="none"
         stroke="#cccccc"
         id="rect35" />
    </g>
  </g>
</svg>
