<?xml version="1.0" encoding="UTF-8" standalone="no"?>
<svg
   width="805"
   height="600"
   version="1.1"
   id="svg24"
   sodipodi:docname="Visual Data Analysis Steam Graph.svg"
   inkscape:version="1.3.2 (091e20e, 2023-11-25)"
   xmlns:inkscape="http://www.inkscape.org/namespaces/inkscape"
   xmlns:sodipodi="http://sodipodi.sourceforge.net/DTD/sodipodi-0.dtd"
   xmlns="http://www.w3.org/2000/svg"
   xmlns:svg="http://www.w3.org/2000/svg">
  <defs
     id="defs24" />
  <sodipodi:namedview
     id="namedview24"
     pagecolor="#ffffff"
     bordercolor="#000000"
     borderopacity="0.25"
     inkscape:showpageshadow="2"
     inkscape:pageopacity="0.0"
     inkscape:pagecheckerboard="0"
     inkscape:deskcolor="#d1d1d1"
     inkscape:zoom="0.51051028"
     inkscape:cx="306.55602"
     inkscape:cy="320.26779"
     inkscape:window-width="1312"
     inkscape:window-height="758"
     inkscape:window-x="128"
     inkscape:window-y="25"
     inkscape:window-maximized="0"
     inkscape:current-layer="viz" />
  <rect
     width="805"
     height="600"
     x="0"
     y="0"
     fill="#FFFFFF"
     id="background" />
  <g
     id="viz">
    <g
       transform="translate(0,0)"
       id="g24">
      <g
         transform="translate(10,20)"
         id="g23">
        <g
           id="g6">
          <path
             fill="#69bda9"
             d="M0,294.9695L2.8442028985507246,295.10045833333334C5.688405797101449,295.2314166666667,11.376811594202898,295.49333333333334,17.065217391304348,295.9282083333333C22.753623188405797,296.36308333333335,28.442028985507246,296.9709166666667,34.130434782608695,297.4924166666667C39.81884057971015,298.0139166666667,45.507246376811594,298.44908333333336,51.19565217391304,299.543125C56.88405797101449,300.63716666666664,62.57246376811594,302.3900833333333,68.26086956521739,303.1387916666667C73.94927536231883,303.8875,79.6376811594203,303.632,85.32608695652173,302.94979166666667C91.01449275362319,302.26758333333333,96.70289855072463,301.15866666666665,102.39130434782608,300.81508333333335C108.07971014492755,300.47150000000005,113.76811594202898,300.89325,119.45652173913044,301.1166666666666C125.14492753623188,301.3400833333333,130.83333333333334,301.36516666666665,136.52173913043478,300.10983333333326C142.21014492753622,298.8545,147.89855072463766,296.31874999999997,153.58695652173913,293.23379166666666C159.2753623188406,290.14883333333336,164.96376811594203,286.51466666666664,170.65217391304347,282.9542916666666C176.3405797101449,279.39391666666666,182.02898550724638,275.9073333333333,187.71739130434784,274.08412500000003C193.40579710144928,272.2609166666667,199.09420289855072,272.10108333333335,204.78260869565216,272.31925C210.4710144927536,272.53741666666673,216.15942028985503,273.1335833333333,221.8478260869565,273.35670833333336C227.53623188405797,273.57983333333334,233.2246376811594,273.42991666666666,238.91304347826087,272.63716666666664C244.60144927536234,271.84441666666663,250.28985507246375,270.40883333333335,255.97826086956522,270.06874999999997C261.6666666666667,269.7286666666667,267.3550724637681,270.48408333333333,273.04347826086956,272.5566666666667C278.731884057971,274.62925,284.42028985507244,278.019,290.1086956521739,283.3705C295.7971014492753,288.72200000000004,301.4855072463768,296.0352500000001,307.17391304347825,302.1990416666667C312.8623188405797,308.36283333333336,318.5507246376812,313.3771666666667,324.2391304347826,320.03825C329.92753623188406,326.6993333333333,335.6159420289855,335.0071666666667,341.30434782608694,344.84099999999995C346.99275362318843,354.6748333333333,352.6811594202898,366.0346666666667,358.3695652173913,376.6002916666667C364.05797101449275,387.16591666666665,369.74637681159425,396.9373333333333,375.4347826086957,405.04333333333335C381.1231884057972,413.1493333333333,386.81159420289856,419.58991666666674,392.5,424.5012916666667C398.18840579710144,429.4126666666668,403.8768115942028,432.7948333333334,409.5652173913043,439.61400000000003C415.25362318840575,446.4331666666667,420.94202898550725,456.6893333333334,426.6304347826087,466.7258750000001C432.3188405797102,476.7624166666667,438.00724637681157,486.57933333333335,443.695652173913,493.5207083333333C449.3840579710145,500.46208333333334,455.072463768116,504.52791666666667,460.7608695652175,506.43512499999997C466.4492753623188,508.34233333333333,472.1376811594203,508.0909166666667,477.82608695652175,505.5642083333334C483.5144927536232,503.0375000000001,489.2028985507247,498.2355,494.89130434782606,494.20699999999994C500.57971014492756,490.1785,506.268115942029,486.92349999999993,511.9565217391305,487.2195416666666C517.6449275362319,487.5155833333333,523.3333333333334,491.36266666666666,529.0217391304348,493.18704166666674C534.7101449275361,495.0114166666667,540.3985507246376,494.8130833333334,546.0869565217391,493.2217500000001C551.7753623188406,491.6304166666667,557.463768115942,488.64608333333337,563.1521739130435,483.9245833333334C568.8405797101449,479.2030833333333,574.5289855072464,472.74441666666667,580.2173913043479,464.06120833333335C585.9057971014493,455.378,591.5942028985507,444.47025,597.2826086956522,436.26304166666665C602.9710144927536,428.05583333333334,608.6594202898551,422.5491666666667,614.3478260869565,417.4123333333334C620.036231884058,412.2755,625.7246376811594,407.50849999999997,631.4130434782609,405.48025C637.1014492753624,403.452,642.7898550724639,404.16249999999997,648.4782608695652,404.1681670551291C654.1666666666666,404.1738341102584,659.8550724637681,403.47466822051666,665.5434782608695,403.1815563467854C671.231884057971,402.8884444730541,676.9202898550724,403.00138661533333,682.6086956521739,402.0650095367237C688.2971014492754,401.12863245811417,693.9855072463769,399.1429361586158,699.6739130434784,398.1971030103616C705.3623188405796,397.25126986210745,711.0507246376811,397.3452998650975,716.7391304347826,399.92350695853787C722.427536231884,402.5017140519783,728.1159420289855,407.56409823586915,733.804347826087,413.6475212770659C739.4927536231885,419.7309443182626,745.18115942029,426.835406216765,750.8695652173914,433.44890155299254C756.5579710144929,440.06239688922005,762.2463768115941,446.18492566317246,767.9347826086956,452.93706033222793C773.623188405797,459.6891950012833,779.3115942028985,467.0709355654417,782.1557971014494,470.76180584752086L785,474.4526761296L785,474.4526761296L782.1557971014494,470.76180584752075C779.3115942028985,467.0709355654417,773.623188405797,459.6891950012833,767.9347826086956,452.93706033222793C762.2463768115941,446.18492566317246,756.5579710144929,440.06239688922005,750.8695652173914,433.44890155299254C745.18115942029,426.835406216765,739.4927536231885,419.7309443182626,733.804347826087,413.6475212770659C728.1159420289855,407.56409823586915,722.427536231884,402.5017140519783,716.7391304347826,399.9235069585379C711.0507246376811,397.3452998650975,705.3623188405796,397.25126986210745,699.6739130434781,398.1971030103616C693.9855072463769,399.1429361586158,688.2971014492754,401.12863245811417,682.6086956521739,402.0650095367237C676.9202898550724,403.00138661533333,671.231884057971,402.8884444730541,665.5434782608695,403.1815563467854C659.8550724637681,403.47466822051666,654.1666666666666,404.1738341102584,648.4782608695652,404.1681670551291C642.7898550724639,404.16249999999997,637.1014492753624,403.452,631.4130434782609,405.48025C625.7246376811594,407.50849999999997,620.036231884058,412.2755,614.3478260869565,417.41758333333337C608.6594202898551,422.5596666666667,602.9710144927536,428.07683333333335,597.2826086956521,436.3015416666667C591.5942028985507,444.52625000000006,585.9057971014493,455.4585,580.2173913043478,464.15804166666675C574.5289855072464,472.85758333333337,568.8405797101449,479.32441666666665,563.1521739130435,484.1048333333334C557.463768115942,488.88525000000004,551.7753623188406,491.97925000000004,546.0869565217391,493.68724999999995C540.3985507246376,495.39525000000003,534.7101449275361,495.71725,529.0217391304348,494.4470416666666C523.3333333333334,493.1768333333334,517.6449275362319,490.31441666666666,511.95652173913044,491.1039583333333C506.268115942029,491.89349999999996,500.57971014492756,496.33500000000004,494.8913043478262,501.85275C489.2028985507247,507.3705,483.5144927536232,513.9644999999999,477.82608695652175,518.945875C472.1376811594203,523.9272500000001,466.4492753623188,527.2959999999999,460.76086956521743,529.741625C455.072463768116,532.1872500000001,449.3840579710145,533.70975,443.695652173913,531.9232916666666C438.00724637681157,530.1368333333334,432.3188405797102,525.0414166666667,426.63043478260875,518.1933750000001C420.94202898550725,511.3453333333334,415.25362318840575,502.7446666666667,409.5652173913043,499.3105833333334C403.8768115942028,495.8765,398.18840579710144,497.609,392.5,497.8525416666667C386.81159420289856,498.09608333333335,381.1231884057972,496.85066666666665,375.4347826086957,495.4920833333333C369.74637681159425,494.13349999999997,364.05797101449275,492.66175,358.3695652173913,486.030125C352.6811594202898,479.3985,346.99275362318843,467.60699999999997,341.30434782608694,458.72866666666664C335.6159420289855,449.8503333333333,329.92753623188406,443.8851666666667,324.2391304347826,437.43233333333336C318.5507246376812,430.9795000000001,312.8623188405797,424.03900000000004,307.17391304347825,419.7138750000001C301.4855072463768,415.3887500000001,295.7971014492753,413.67900000000003,290.1086956521739,410.0215C284.42028985507244,406.36400000000003,278.731884057971,400.75874999999996,273.04347826086956,397.00675C267.3550724637681,393.25475,261.6666666666667,391.356,255.97826086956525,388.39208333333335C250.28985507246375,385.42816666666664,244.60144927536234,381.3990833333333,238.91304347826087,376.6915833333333C233.2246376811594,371.98408333333333,227.53623188405797,366.59816666666666,221.84782608695653,363.0937916666667C216.15942028985503,359.5894166666667,210.4710144927536,357.96658333333335,204.78260869565213,357.07408333333336C199.09420289855072,356.1815833333333,193.40579710144928,356.0194166666667,187.71739130434784,354.339125C182.02898550724638,352.65883333333335,176.3405797101449,349.4604166666666,170.65217391304347,347.40095833333334C164.96376811594203,345.3415,159.2753623188406,344.421,153.58695652173913,344.967875C147.89855072463766,345.51475,142.21014492753622,347.529,136.52173913043478,347.68474999999995C130.83333333333334,347.8405,125.14492753623188,346.13775000000004,119.45652173913044,345.26741666666675C113.76811594202898,344.39708333333334,108.07971014492755,344.3591666666666,102.39130434782608,345.66991666666667C96.70289855072463,346.98066666666665,91.01449275362319,349.6400833333333,85.32608695652173,349.13054166666666C79.6376811594203,348.6209999999999,73.94927536231883,344.94249999999994,68.26086956521739,340.8757916666666C62.57246376811594,336.80908333333326,56.88405797101449,332.3541666666666,51.19565217391304,329.1099583333333C45.507246376811594,325.86574999999993,39.81884057971015,323.83225,34.130434782608695,322.26483333333334C28.442028985507246,320.69741666666664,22.753623188405797,319.59608333333335,17.065217391304348,318.511375C11.376811594202898,317.4266666666667,5.688405797101449,316.35858333333334,2.8442028985507246,315.8245416666667L0,315.2905Z"
             id="path1">
            <title
               id="title1">Tape</title>
          </path>
          <path
             fill="#9e0142"
             d="M0,294.9695L2.8442028985507246,295.10045833333334C5.688405797101449,295.2314166666667,11.376811594202898,295.49333333333334,17.065217391304348,295.9282083333333C22.753623188405797,296.36308333333335,28.442028985507246,296.9709166666667,34.130434782608695,297.4924166666667C39.81884057971015,298.0139166666667,45.507246376811594,298.44908333333336,51.19565217391304,299.543125C56.88405797101449,300.63716666666664,62.57246376811594,302.3900833333333,68.26086956521739,303.1387916666667C73.94927536231883,303.8875,79.6376811594203,303.632,85.32608695652173,302.94979166666667C91.01449275362319,302.26758333333333,96.70289855072463,301.15866666666665,102.39130434782608,300.81508333333335C108.07971014492755,300.47150000000005,113.76811594202898,300.89325,119.45652173913044,301.1166666666666C125.14492753623188,301.3400833333333,130.83333333333334,301.36516666666665,136.52173913043478,300.10983333333326C142.21014492753622,298.8545,147.89855072463766,296.31874999999997,153.58695652173913,293.1334583333333C159.2753623188406,289.9481666666667,164.96376811594203,286.11333333333334,170.65217391304347,281.95037499999995C176.3405797101449,277.7874166666667,182.02898550724638,273.29633333333334,187.71739130434784,269.301375C193.40579710144928,265.3064166666667,199.09420289855072,261.80758333333335,204.78260869565216,257.20275C210.4710144927536,252.5979166666667,216.15942028985503,246.88708333333338,221.8478260869565,240.08629166666665C227.53623188405797,233.28549999999998,233.2246376811594,225.39475000000002,238.91304347826087,217.77933333333337C244.60144927536234,210.16391666666667,250.28985507246375,202.82383333333334,255.97826086956522,196.68483333333336C261.6666666666667,190.54583333333335,267.3550724637681,185.60791666666668,273.04347826086956,179.75941666666668C278.731884057971,173.91091666666668,284.42028985507244,167.15183333333331,290.1086956521739,162.09025C295.7971014492753,157.02866666666665,301.4855072463768,153.66458333333333,307.17391304347825,148.663375C312.8623188405797,143.66216666666665,318.5507246376812,137.0238333333333,324.2391304347826,130.9425833333333C329.92753623188406,124.86133333333329,335.6159420289855,119.33716666666663,341.30434782608694,110.8018333333333C346.99275362318843,102.2665,352.6811594202898,90.71999999999998,358.3695652173913,84.18754166666666C364.05797101449275,77.65508333333334,369.74637681159425,76.13666666666666,375.4347826086957,74.91983333333333C381.1231884057972,73.70299999999999,386.81159420289856,72.78774999999999,392.5,73.61870833333332C398.18840579710144,74.44966666666666,403.8768115942028,77.02683333333333,409.5652173913043,75.03533333333333C415.25362318840575,73.0438333333333,420.94202898550725,66.48366666666662,426.6304347826087,59.88995833333329C432.3188405797102,53.296249999999965,438.00724637681157,46.66900000000002,443.695652173913,43.53037500000003C449.3840579710145,40.39175000000004,455.072463768116,40.74175,460.7608695652175,42.94004166666667C466.4492753623188,45.13833333333333,472.1376811594203,49.18491666666669,477.82608695652175,54.20362500000001C483.5144927536232,59.22233333333333,489.2028985507247,65.21316666666662,494.89130434782606,71.06399999999996C500.57971014492756,76.9148333333333,506.268115942029,82.62566666666667,511.9565217391305,86.33770833333335C517.6449275362319,90.04975000000002,523.3333333333334,91.76300000000002,529.0217391304348,97.98629166666667C534.7101449275361,104.20958333333333,540.3985507246376,114.94291666666668,546.0869565217391,125.55666666666666C551.7753623188406,136.17041666666668,557.463768115942,146.66458333333333,563.1521739130435,159.86891666666665C568.8405797101449,173.07325,574.5289855072464,188.98774999999998,580.2173913043479,203.10062499999995C585.9057971014493,217.21349999999998,591.5942028985507,229.52475,597.2826086956522,239.65637500000003C602.9710144927536,249.788,608.6594202898551,257.74,614.3478260869565,264.75925C620.036231884058,271.7785,625.7246376811594,277.865,631.4130434782609,282.94525C637.1014492753624,288.0255,642.7898550724639,292.0995,648.4782608695652,297.3774370187834C654.1666666666666,302.6553740375667,659.8550724637681,309.1372480751333,665.5434782608695,314.4520588140837C671.231884057971,319.76686955303416,676.9202898550724,323.9146169933684,682.6086956521739,327.1173020389721C688.2971014492754,330.31998708457587,693.9855072463769,332.57760973544924,699.6739130434784,335.69824126602174C705.3623188405796,338.81887279659423,711.0507246376811,342.80251320686585,716.7391304347826,349.16301906166046C722.427536231884,355.523524916455,728.1159420289855,364.26089621577256,733.804347826087,372.6052098494542C739.4927536231885,380.94952348313586,745.18115942029,388.90077945118173,750.8695652173914,398.0391351488126C756.5579710144929,407.1774908464434,762.2463768115941,417.50294627365923,767.9347826086956,426.84815861914626C773.623188405797,436.1933709646334,779.3115942028985,444.55834022839167,782.1557971014494,448.74082486027083L785,452.92330949215L785,474.4526761296L782.1557971014494,470.76180584752075C779.3115942028985,467.0709355654417,773.623188405797,459.6891950012833,767.9347826086956,452.93706033222793C762.2463768115941,446.18492566317246,756.5579710144929,440.06239688922005,750.8695652173914,433.44890155299254C745.18115942029,426.835406216765,739.4927536231885,419.7309443182626,733.804347826087,413.6475212770659C728.1159420289855,407.56409823586915,722.427536231884,402.5017140519783,716.7391304347826,399.9235069585379C711.0507246376811,397.3452998650975,705.3623188405796,397.25126986210745,699.6739130434781,398.1971030103616C693.9855072463769,399.1429361586158,688.2971014492754,401.12863245811417,682.6086956521739,402.0650095367237C676.9202898550724,403.00138661533333,671.231884057971,402.8884444730541,665.5434782608695,403.1815563467854C659.8550724637681,403.47466822051666,654.1666666666666,404.1738341102584,648.4782608695652,404.1681670551291C642.7898550724639,404.16249999999997,637.1014492753624,403.452,631.4130434782609,405.48025C625.7246376811594,407.50849999999997,620.036231884058,412.2755,614.3478260869565,417.4123333333334C608.6594202898551,422.5491666666667,602.9710144927536,428.05583333333334,597.2826086956521,436.26304166666677C591.5942028985507,444.47025,585.9057971014493,455.378,580.2173913043478,464.06120833333335C574.5289855072464,472.74441666666667,568.8405797101449,479.2030833333333,563.1521739130435,483.9245833333334C557.463768115942,488.64608333333337,551.7753623188406,491.6304166666667,546.0869565217391,493.22175C540.3985507246376,494.8130833333334,534.7101449275361,495.0114166666667,529.0217391304348,493.18704166666663C523.3333333333334,491.36266666666666,517.6449275362319,487.5155833333333,511.95652173913044,487.21954166666666C506.268115942029,486.92349999999993,500.57971014492756,490.1785,494.8913043478262,494.20699999999994C489.2028985507247,498.2355,483.5144927536232,503.0375000000001,477.82608695652175,505.5642083333334C472.1376811594203,508.0909166666667,466.4492753623188,508.34233333333333,460.76086956521743,506.43512499999997C455.072463768116,504.52791666666667,449.3840579710145,500.46208333333334,443.695652173913,493.5207083333333C438.00724637681157,486.57933333333335,432.3188405797102,476.7624166666667,426.63043478260875,466.72587500000003C420.94202898550725,456.6893333333334,415.25362318840575,446.4331666666667,409.5652173913043,439.61400000000003C403.8768115942028,432.7948333333334,398.18840579710144,429.4126666666668,392.5,424.5012916666667C386.81159420289856,419.58991666666674,381.1231884057972,413.1493333333333,375.4347826086957,405.0433333333333C369.74637681159425,396.9373333333333,364.05797101449275,387.16591666666665,358.3695652173913,376.6002916666667C352.6811594202898,366.0346666666667,346.99275362318843,354.6748333333333,341.30434782608694,344.84100000000007C335.6159420289855,335.0071666666667,329.92753623188406,326.6993333333333,324.2391304347826,320.03825C318.5507246376812,313.3771666666667,312.8623188405797,308.36283333333336,307.17391304347825,302.1990416666667C301.4855072463768,296.0352500000001,295.7971014492753,288.72200000000004,290.1086956521739,283.3705C284.42028985507244,278.019,278.731884057971,274.62925,273.04347826086956,272.5566666666667C267.3550724637681,270.48408333333333,261.6666666666667,269.7286666666667,255.97826086956525,270.06875C250.28985507246375,270.40883333333335,244.60144927536234,271.84441666666663,238.91304347826087,272.63716666666664C233.2246376811594,273.42991666666666,227.53623188405797,273.57983333333334,221.84782608695653,273.35670833333336C216.15942028985503,273.1335833333333,210.4710144927536,272.53741666666673,204.78260869565213,272.31925C199.09420289855072,272.10108333333335,193.40579710144928,272.2609166666667,187.71739130434784,274.08412500000003C182.02898550724638,275.9073333333333,176.3405797101449,279.39391666666666,170.65217391304347,282.9542916666667C164.96376811594203,286.51466666666664,159.2753623188406,290.14883333333336,153.58695652173913,293.23379166666666C147.89855072463766,296.31874999999997,142.21014492753622,298.8545,136.52173913043478,300.10983333333326C130.83333333333334,301.36516666666665,125.14492753623188,301.3400833333333,119.45652173913044,301.1166666666666C113.76811594202898,300.89325,108.07971014492755,300.47150000000005,102.39130434782608,300.81508333333335C96.70289855072463,301.15866666666665,91.01449275362319,302.26758333333333,85.32608695652173,302.94979166666667C79.6376811594203,303.632,73.94927536231883,303.8875,68.26086956521739,303.1387916666667C62.57246376811594,302.3900833333333,56.88405797101449,300.63716666666664,51.19565217391304,299.543125C45.507246376811594,298.44908333333336,39.81884057971015,298.0139166666667,34.130434782608695,297.4924166666667C28.442028985507246,296.9709166666667,22.753623188405797,296.36308333333335,17.065217391304348,295.9282083333334C11.376811594202898,295.49333333333334,5.688405797101449,295.2314166666667,2.8442028985507246,295.1004583333333L0,294.9695Z"
             id="path2">
            <title
               id="title2">Disc</title>
          </path>
          <path
             fill="#f0704a"
             d="M0,294.9695L2.8442028985507246,295.10045833333334C5.688405797101449,295.2314166666667,11.376811594202898,295.49333333333334,17.065217391304348,295.9282083333333C22.753623188405797,296.36308333333335,28.442028985507246,296.9709166666667,34.130434782608695,297.4924166666667C39.81884057971015,298.0139166666667,45.507246376811594,298.44908333333336,51.19565217391304,299.543125C56.88405797101449,300.63716666666664,62.57246376811594,302.3900833333333,68.26086956521739,303.1387916666667C73.94927536231883,303.8875,79.6376811594203,303.632,85.32608695652173,302.94979166666667C91.01449275362319,302.26758333333333,96.70289855072463,301.15866666666665,102.39130434782608,300.81508333333335C108.07971014492755,300.47150000000005,113.76811594202898,300.89325,119.45652173913044,301.1166666666666C125.14492753623188,301.3400833333333,130.83333333333334,301.36516666666665,136.52173913043478,300.10983333333326C142.21014492753622,298.8545,147.89855072463766,296.31874999999997,153.58695652173913,293.1334583333333C159.2753623188406,289.9481666666667,164.96376811594203,286.11333333333334,170.65217391304347,281.95037499999995C176.3405797101449,277.7874166666667,182.02898550724638,273.29633333333334,187.71739130434784,269.301375C193.40579710144928,265.3064166666667,199.09420289855072,261.80758333333335,204.78260869565216,257.20275C210.4710144927536,252.5979166666667,216.15942028985503,246.88708333333338,221.8478260869565,240.08629166666665C227.53623188405797,233.28549999999998,233.2246376811594,225.39475000000002,238.91304347826087,217.77933333333337C244.60144927536234,210.16391666666667,250.28985507246375,202.82383333333334,255.97826086956522,196.68483333333336C261.6666666666667,190.54583333333335,267.3550724637681,185.60791666666668,273.04347826086956,179.75941666666668C278.731884057971,173.91091666666668,284.42028985507244,167.15183333333331,290.1086956521739,162.09025C295.7971014492753,157.02866666666665,301.4855072463768,153.66458333333333,307.17391304347825,148.663375C312.8623188405797,143.66216666666665,318.5507246376812,137.0238333333333,324.2391304347826,130.9425833333333C329.92753623188406,124.86133333333329,335.6159420289855,119.33716666666663,341.30434782608694,110.8018333333333C346.99275362318843,102.2665,352.6811594202898,90.71999999999998,358.3695652173913,84.18754166666666C364.05797101449275,77.65508333333334,369.74637681159425,76.13666666666666,375.4347826086957,74.91983333333333C381.1231884057972,73.70299999999999,386.81159420289856,72.78774999999999,392.5,73.61870833333332C398.18840579710144,74.44966666666666,403.8768115942028,77.02683333333333,409.5652173913043,75.03533333333333C415.25362318840575,73.0438333333333,420.94202898550725,66.48366666666662,426.6304347826087,59.88995833333329C432.3188405797102,53.296249999999965,438.00724637681157,46.66900000000002,443.695652173913,43.53037500000003C449.3840579710145,40.39175000000004,455.072463768116,40.74175,460.7608695652175,42.94004166666667C466.4492753623188,45.13833333333333,472.1376811594203,49.18491666666669,477.82608695652175,54.20362500000001C483.5144927536232,59.22233333333333,489.2028985507247,65.21316666666662,494.89130434782606,71.06399999999996C500.57971014492756,76.9148333333333,506.268115942029,82.62566666666667,511.9565217391305,85.26729166666668C517.6449275362319,87.90891666666668,523.3333333333334,87.48133333333334,529.0217391304348,88.312875C534.7101449275361,89.14441666666664,540.3985507246376,91.23508333333331,546.0869565217391,93.29424999999998C551.7753623188406,95.35341666666663,557.463768115942,97.38108333333331,563.1521739130435,102.02149999999999C568.8405797101449,106.66191666666664,574.5289855072464,113.91508333333331,580.2173913043479,121.98520833333333C585.9057971014493,130.05533333333335,591.5942028985507,138.94241666666667,597.2826086956522,147.51304166666668C602.9710144927536,156.0836666666667,608.6594202898551,164.33783333333335,614.3478260869565,171.31333333333336C620.036231884058,178.28883333333332,625.7246376811594,183.98566666666667,631.4130434782609,187.65541666666664C637.1014492753624,191.32516666666666,642.7898550724639,192.96783333333335,648.4782608695652,196.36260663903332C654.1666666666666,199.75737994473334,659.8550724637681,204.90425988946666,665.5434782608695,210.11115008065875C671.231884057971,215.3180402718508,676.9202898550724,220.58494070950164,682.6086956521739,226.48909128428042C688.2971014492754,232.39324185905915,693.9855072463769,238.93464257096582,699.6739130434784,245.61146671884663C705.3623188405796,252.2882908667275,711.0507246376811,259.1005384505825,716.7391304347826,269.5829218381687C722.427536231884,280.065305225755,728.1159420289855,294.2178244170725,733.804347826087,307.861473029985C739.4927536231885,321.50512164289756,745.18115942029,334.639899677405,750.8695652173914,348.49982855566094C756.5579710144929,362.3597574339167,762.2463768115941,376.9448371559209,767.9347826086956,389.4871253221404C773.623188405797,402.02941348836003,779.3115942028985,412.528910098795,782.1557971014494,417.77865840401256L785,423.02840670923L785,452.92330949215L782.1557971014494,448.74082486027083C779.3115942028985,444.55834022839167,773.623188405797,436.1933709646334,767.9347826086956,426.84815861914626C762.2463768115941,417.50294627365923,756.5579710144929,407.1774908464434,750.8695652173914,398.0391351488126C745.18115942029,388.90077945118173,739.4927536231885,380.94952348313586,733.804347826087,372.6052098494542C728.1159420289855,364.26089621577256,722.427536231884,355.523524916455,716.7391304347826,349.16301906166046C711.0507246376811,342.80251320686585,705.3623188405796,338.81887279659423,699.6739130434781,335.69824126602174C693.9855072463769,332.57760973544924,688.2971014492754,330.31998708457587,682.6086956521739,327.1173020389721C676.9202898550724,323.9146169933684,671.231884057971,319.76686955303416,665.5434782608695,314.4520588140837C659.8550724637681,309.1372480751333,654.1666666666666,302.6553740375667,648.4782608695652,297.3774370187834C642.7898550724639,292.0995,637.1014492753624,288.0255,631.4130434782609,282.94525C625.7246376811594,277.865,620.036231884058,271.7785,614.3478260869565,264.75925C608.6594202898551,257.74,602.9710144927536,249.788,597.2826086956521,239.656375C591.5942028985507,229.52475,585.9057971014493,217.21349999999998,580.2173913043478,203.100625C574.5289855072464,188.98774999999998,568.8405797101449,173.07325,563.1521739130435,159.86891666666665C557.463768115942,146.66458333333333,551.7753623188406,136.17041666666668,546.0869565217391,125.55666666666666C540.3985507246376,114.94291666666668,534.7101449275361,104.20958333333333,529.0217391304348,97.98629166666666C523.3333333333334,91.76300000000002,517.6449275362319,90.04975000000002,511.95652173913044,86.33770833333335C506.268115942029,82.62566666666667,500.57971014492756,76.9148333333333,494.8913043478262,71.06399999999996C489.2028985507247,65.21316666666662,483.5144927536232,59.22233333333333,477.82608695652175,54.20362500000002C472.1376811594203,49.18491666666669,466.4492753623188,45.13833333333333,460.76086956521743,42.94004166666667C455.072463768116,40.74175,449.3840579710145,40.39175000000004,443.695652173913,43.53037500000003C438.00724637681157,46.66900000000002,432.3188405797102,53.296249999999965,426.63043478260875,59.88995833333328C420.94202898550725,66.48366666666662,415.25362318840575,73.0438333333333,409.5652173913043,75.03533333333333C403.8768115942028,77.02683333333333,398.18840579710144,74.44966666666666,392.5,73.61870833333332C386.81159420289856,72.78774999999999,381.1231884057972,73.70299999999999,375.4347826086957,74.91983333333333C369.74637681159425,76.13666666666666,364.05797101449275,77.65508333333334,358.3695652173913,84.18754166666666C352.6811594202898,90.71999999999998,346.99275362318843,102.2665,341.30434782608694,110.80183333333332C335.6159420289855,119.33716666666663,329.92753623188406,124.86133333333329,324.2391304347826,130.94258333333332C318.5507246376812,137.0238333333333,312.8623188405797,143.66216666666665,307.17391304347825,148.663375C301.4855072463768,153.66458333333333,295.7971014492753,157.02866666666665,290.1086956521739,162.09025C284.42028985507244,167.15183333333331,278.731884057971,173.91091666666668,273.04347826086956,179.75941666666668C267.3550724637681,185.60791666666668,261.6666666666667,190.54583333333335,255.97826086956525,196.68483333333333C250.28985507246375,202.82383333333334,244.60144927536234,210.16391666666667,238.91304347826087,217.7793333333333C233.2246376811594,225.39475000000002,227.53623188405797,233.28549999999998,221.84782608695653,240.08629166666665C216.15942028985503,246.88708333333338,210.4710144927536,252.5979166666667,204.78260869565213,257.20275C199.09420289855072,261.80758333333335,193.40579710144928,265.3064166666667,187.71739130434784,269.301375C182.02898550724638,273.29633333333334,176.3405797101449,277.7874166666667,170.65217391304347,281.95037499999995C164.96376811594203,286.11333333333334,159.2753623188406,289.9481666666667,153.58695652173913,293.1334583333333C147.89855072463766,296.31874999999997,142.21014492753622,298.8545,136.52173913043478,300.10983333333326C130.83333333333334,301.36516666666665,125.14492753623188,301.3400833333333,119.45652173913044,301.1166666666666C113.76811594202898,300.89325,108.07971014492755,300.47150000000005,102.39130434782608,300.81508333333335C96.70289855072463,301.15866666666665,91.01449275362319,302.26758333333333,85.32608695652173,302.94979166666667C79.6376811594203,303.632,73.94927536231883,303.8875,68.26086956521739,303.1387916666667C62.57246376811594,302.3900833333333,56.88405797101449,300.63716666666664,51.19565217391304,299.543125C45.507246376811594,298.44908333333336,39.81884057971015,298.0139166666667,34.130434782608695,297.4924166666667C28.442028985507246,296.9709166666667,22.753623188405797,296.36308333333335,17.065217391304348,295.9282083333334C11.376811594202898,295.49333333333334,5.688405797101449,295.2314166666667,2.8442028985507246,295.1004583333333L0,294.9695Z"
             id="path3">
            <title
               id="title3">Download</title>
          </path>
          <path
             fill="#918566"
             d="M0,294.9695L2.8442028985507246,295.10045833333334C5.688405797101449,295.2314166666667,11.376811594202898,295.49333333333334,17.065217391304348,295.9282083333333C22.753623188405797,296.36308333333335,28.442028985507246,296.9709166666667,34.130434782608695,297.4924166666667C39.81884057971015,298.0139166666667,45.507246376811594,298.44908333333336,51.19565217391304,299.543125C56.88405797101449,300.63716666666664,62.57246376811594,302.3900833333333,68.26086956521739,303.1387916666667C73.94927536231883,303.8875,79.6376811594203,303.632,85.32608695652173,302.94979166666667C91.01449275362319,302.26758333333333,96.70289855072463,301.15866666666665,102.39130434782608,300.81508333333335C108.07971014492755,300.47150000000005,113.76811594202898,300.89325,119.45652173913044,301.1166666666666C125.14492753623188,301.3400833333333,130.83333333333334,301.36516666666665,136.52173913043478,300.10983333333326C142.21014492753622,298.8545,147.89855072463766,296.31874999999997,153.58695652173913,293.1334583333333C159.2753623188406,289.9481666666667,164.96376811594203,286.11333333333334,170.65217391304347,281.95037499999995C176.3405797101449,277.7874166666667,182.02898550724638,273.29633333333334,187.71739130434784,269.301375C193.40579710144928,265.3064166666667,199.09420289855072,261.80758333333335,204.78260869565216,257.20275C210.4710144927536,252.5979166666667,216.15942028985503,246.88708333333338,221.8478260869565,240.08629166666665C227.53623188405797,233.28549999999998,233.2246376811594,225.39475000000002,238.91304347826087,217.77933333333337C244.60144927536234,210.16391666666667,250.28985507246375,202.82383333333334,255.97826086956522,196.01166666666668C261.6666666666667,189.19950000000003,267.3550724637681,182.91525000000001,273.04347826086956,176.06166666666664C278.731884057971,169.20808333333332,284.42028985507244,161.78516666666667,290.1086956521739,156.70783333333333C295.7971014492753,151.6305,301.4855072463768,148.89875000000004,307.17391304347825,143.98445833333338C312.8623188405797,139.07016666666672,318.5507246376812,131.97333333333336,324.2391304347826,125.33675000000001C329.92753623188406,118.70016666666668,335.6159420289855,112.52383333333334,341.30434782608694,103.55858333333335C346.99275362318843,94.59333333333336,352.6811594202898,82.83916666666669,358.3695652173913,76.26587500000001C364.05797101449275,69.69258333333333,369.74637681159425,68.30016666666664,375.4347826086957,67.05416666666663C381.1231884057972,65.80816666666662,386.81159420289856,64.7085833333333,392.5,64.9352083333333C398.18840579710144,65.16183333333332,403.8768115942028,66.71466666666666,409.5652173913043,63.13708333333332C415.25362318840575,59.559499999999986,420.94202898550725,50.851499999999966,426.6304347826087,43.94979166666665C432.3188405797102,37.04808333333333,438.00724637681157,31.952666666666705,443.695652173913,30.132958333333374C449.3840579710145,28.31325000000004,455.072463768116,29.769250000000003,460.7608695652175,32.209624999999996C466.4492753623188,34.649999999999984,472.1376811594203,38.07475,477.82608695652175,43.00595833333335C483.5144927536232,47.93716666666669,489.2028985507247,54.374833333333356,494.89130434782606,59.801583333333355C500.57971014492756,65.22833333333335,506.268115942029,69.64416666666666,511.9565217391305,70.43779166666668C517.6449275362319,71.23141666666668,523.3333333333334,68.40283333333338,529.0217391304348,68.02979166666671C534.7101449275361,67.65675000000003,540.3985507246376,69.73925000000001,546.0869565217391,72.72183333333334C551.7753623188406,75.70441666666666,557.463768115942,79.58708333333333,563.1521739130435,84.95141666666666C568.8405797101449,90.31575000000002,574.5289855072464,97.16175000000003,580.2173913043479,106.54029166666668C585.9057971014493,115.91883333333334,591.5942028985507,127.82991666666665,597.2826086956522,136.81820833333333C602.9710144927536,145.8065,608.6594202898551,151.87199999999999,614.3478260869565,158.01624999999999C620.036231884058,164.16049999999998,625.7246376811594,170.3835,631.4130434782609,174.45108333333334C637.1014492753624,178.51866666666663,642.7898550724639,180.43083333333334,648.4782608695652,184.19048992474666C654.1666666666666,187.95014651615998,659.8550724637681,193.55729303232,665.5434782608695,199.04624719801208C671.231884057971,204.53520136370415,676.9202898550724,209.90596317892832,682.6086956521739,215.96707594235372C688.2971014492754,222.02818870577914,693.9855072463769,228.7796524174058,699.6739130434784,235.57116127626082C705.3623188405796,242.3626701351158,711.0507246376811,249.19422414119913,716.7391304347826,259.71510428453627C722.427536231884,270.23598442787335,728.1159420289855,284.4461907084642,733.804347826087,298.13019657266426C739.4927536231885,311.8142024368642,745.18115942029,324.97200788467336,750.8695652173914,338.59384430943754C756.5579710144929,352.21568073420167,762.2463768115941,366.3015481359209,767.9347826086956,378.6626889776646C773.623188405797,391.0238298194083,779.3115942028985,401.66024410117666,782.1557971014494,406.9784512420608L785,412.296658382945L785,423.02840670923L782.1557971014494,417.7786584040125C779.3115942028985,412.528910098795,773.623188405797,402.02941348836003,767.9347826086956,389.4871253221404C762.2463768115941,376.9448371559209,756.5579710144929,362.3597574339167,750.8695652173914,348.4998285556608C745.18115942029,334.639899677405,739.4927536231885,321.50512164289756,733.804347826087,307.861473029985C728.1159420289855,294.2178244170725,722.427536231884,280.065305225755,716.7391304347826,269.5829218381687C711.0507246376811,259.1005384505825,705.3623188405796,252.2882908667275,699.6739130434781,245.61146671884669C693.9855072463769,238.93464257096582,688.2971014492754,232.39324185905915,682.6086956521739,226.48909128428042C676.9202898550724,220.58494070950164,671.231884057971,215.3180402718508,665.5434782608695,210.11115008065875C659.8550724637681,204.90425988946666,654.1666666666666,199.75737994473334,648.4782608695652,196.36260663903332C642.7898550724639,192.96783333333335,637.1014492753624,191.32516666666666,631.4130434782609,187.65541666666664C625.7246376811594,183.98566666666667,620.036231884058,178.28883333333332,614.3478260869565,171.31333333333336C608.6594202898551,164.33783333333335,602.9710144927536,156.0836666666667,597.2826086956521,147.51304166666668C591.5942028985507,138.94241666666667,585.9057971014493,130.05533333333335,580.2173913043478,121.98520833333333C574.5289855072464,113.91508333333331,568.8405797101449,106.66191666666664,563.1521739130435,102.02149999999999C557.463768115942,97.38108333333331,551.7753623188406,95.35341666666663,546.0869565217391,93.29424999999996C540.3985507246376,91.23508333333331,534.7101449275361,89.14441666666664,529.0217391304348,88.31287499999998C523.3333333333334,87.48133333333334,517.6449275362319,87.90891666666668,511.95652173913044,85.26729166666668C506.268115942029,82.62566666666667,500.57971014492756,76.9148333333333,494.8913043478262,71.06399999999996C489.2028985507247,65.21316666666662,483.5144927536232,59.22233333333333,477.82608695652175,54.20362500000002C472.1376811594203,49.18491666666669,466.4492753623188,45.13833333333333,460.76086956521743,42.94004166666667C455.072463768116,40.74175,449.3840579710145,40.39175000000004,443.695652173913,43.53037500000003C438.00724637681157,46.66900000000002,432.3188405797102,53.296249999999965,426.63043478260875,59.88995833333328C420.94202898550725,66.48366666666662,415.25362318840575,73.0438333333333,409.5652173913043,75.03533333333333C403.8768115942028,77.02683333333333,398.18840579710144,74.44966666666666,392.5,73.61870833333332C386.81159420289856,72.78774999999999,381.1231884057972,73.70299999999999,375.4347826086957,74.91983333333333C369.74637681159425,76.13666666666666,364.05797101449275,77.65508333333334,358.3695652173913,84.18754166666666C352.6811594202898,90.71999999999998,346.99275362318843,102.2665,341.30434782608694,110.80183333333332C335.6159420289855,119.33716666666663,329.92753623188406,124.86133333333329,324.2391304347826,130.94258333333332C318.5507246376812,137.0238333333333,312.8623188405797,143.66216666666665,307.17391304347825,148.663375C301.4855072463768,153.66458333333333,295.7971014492753,157.02866666666665,290.1086956521739,162.09025C284.42028985507244,167.15183333333331,278.731884057971,173.91091666666668,273.04347826086956,179.75941666666668C267.3550724637681,185.60791666666668,261.6666666666667,190.54583333333335,255.97826086956525,196.68483333333333C250.28985507246375,202.82383333333334,244.60144927536234,210.16391666666667,238.91304347826087,217.7793333333333C233.2246376811594,225.39475000000002,227.53623188405797,233.28549999999998,221.84782608695653,240.08629166666665C216.15942028985503,246.88708333333338,210.4710144927536,252.5979166666667,204.78260869565213,257.20275C199.09420289855072,261.80758333333335,193.40579710144928,265.3064166666667,187.71739130434784,269.301375C182.02898550724638,273.29633333333334,176.3405797101449,277.7874166666667,170.65217391304347,281.95037499999995C164.96376811594203,286.11333333333334,159.2753623188406,289.9481666666667,153.58695652173913,293.1334583333333C147.89855072463766,296.31874999999997,142.21014492753622,298.8545,136.52173913043478,300.10983333333326C130.83333333333334,301.36516666666665,125.14492753623188,301.3400833333333,119.45652173913044,301.1166666666666C113.76811594202898,300.89325,108.07971014492755,300.47150000000005,102.39130434782608,300.81508333333335C96.70289855072463,301.15866666666665,91.01449275362319,302.26758333333333,85.32608695652173,302.94979166666667C79.6376811594203,303.632,73.94927536231883,303.8875,68.26086956521739,303.1387916666667C62.57246376811594,302.3900833333333,56.88405797101449,300.63716666666664,51.19565217391304,299.543125C45.507246376811594,298.44908333333336,39.81884057971015,298.0139166666667,34.130434782608695,297.4924166666667C28.442028985507246,296.9709166666667,22.753623188405797,296.36308333333335,17.065217391304348,295.9282083333334C11.376811594202898,295.49333333333334,5.688405797101449,295.2314166666667,2.8442028985507246,295.1004583333333L0,294.9695Z"
             id="path4">
            <title
               id="title4">Other</title>
          </path>
          <path
             fill="#e0f3a1"
             d="M0,294.9695L2.8442028985507246,295.10045833333334C5.688405797101449,295.2314166666667,11.376811594202898,295.49333333333334,17.065217391304348,295.9282083333333C22.753623188405797,296.36308333333335,28.442028985507246,296.9709166666667,34.130434782608695,297.4924166666667C39.81884057971015,298.0139166666667,45.507246376811594,298.44908333333336,51.19565217391304,299.543125C56.88405797101449,300.63716666666664,62.57246376811594,302.3900833333333,68.26086956521739,303.1387916666667C73.94927536231883,303.8875,79.6376811594203,303.632,85.32608695652173,302.94979166666667C91.01449275362319,302.26758333333333,96.70289855072463,301.15866666666665,102.39130434782608,300.81508333333335C108.07971014492755,300.47150000000005,113.76811594202898,300.89325,119.45652173913044,301.1166666666666C125.14492753623188,301.3400833333333,130.83333333333334,301.36516666666665,136.52173913043478,300.10983333333326C142.21014492753622,298.8545,147.89855072463766,296.31874999999997,153.58695652173913,293.1334583333333C159.2753623188406,289.9481666666667,164.96376811594203,286.11333333333334,170.65217391304347,281.95037499999995C176.3405797101449,277.7874166666667,182.02898550724638,273.29633333333334,187.71739130434784,269.301375C193.40579710144928,265.3064166666667,199.09420289855072,261.80758333333335,204.78260869565216,257.20275C210.4710144927536,252.5979166666667,216.15942028985503,246.88708333333338,221.8478260869565,240.08629166666665C227.53623188405797,233.28549999999998,233.2246376811594,225.39475000000002,238.91304347826087,217.77933333333337C244.60144927536234,210.16391666666667,250.28985507246375,202.82383333333334,255.97826086956522,196.01166666666668C261.6666666666667,189.19950000000003,267.3550724637681,182.91525000000001,273.04347826086956,176.06166666666664C278.731884057971,169.20808333333332,284.42028985507244,161.78516666666667,290.1086956521739,156.70783333333333C295.7971014492753,151.6305,301.4855072463768,148.89875000000004,307.17391304347825,143.98445833333338C312.8623188405797,139.07016666666672,318.5507246376812,131.97333333333336,324.2391304347826,125.33675000000001C329.92753623188406,118.70016666666668,335.6159420289855,112.52383333333334,341.30434782608694,103.55858333333335C346.99275362318843,94.59333333333336,352.6811594202898,82.83916666666669,358.3695652173913,76.26587500000001C364.05797101449275,69.69258333333333,369.74637681159425,68.30016666666664,375.4347826086957,67.05416666666663C381.1231884057972,65.80816666666662,386.81159420289856,64.7085833333333,392.5,64.9352083333333C398.18840579710144,65.16183333333332,403.8768115942028,66.71466666666666,409.5652173913043,63.13708333333332C415.25362318840575,59.559499999999986,420.94202898550725,50.851499999999966,426.6304347826087,43.94979166666665C432.3188405797102,37.04808333333333,438.00724637681157,31.952666666666705,443.695652173913,30.132958333333374C449.3840579710145,28.31325000000004,455.072463768116,29.769250000000003,460.7608695652175,32.209624999999996C466.4492753623188,34.649999999999984,472.1376811594203,38.07475,477.82608695652175,43.00595833333335C483.5144927536232,47.93716666666669,489.2028985507247,54.374833333333356,494.89130434782606,59.801583333333355C500.57971014492756,65.22833333333335,506.268115942029,69.64416666666666,511.9565217391305,70.39754166666667C517.6449275362319,71.15091666666667,523.3333333333334,68.24183333333337,529.0217391304348,66.87945833333337C534.7101449275361,65.51708333333336,540.3985507246376,65.70141666666665,546.0869565217391,67.3300833333333C551.7753623188406,68.95874999999997,557.463768115942,72.03175,563.1521739130435,76.80925000000003C568.8405797101449,81.58675000000004,574.5289855072464,88.06875000000004,580.2173913043479,96.96662500000004C585.9057971014493,105.86450000000004,591.5942028985507,117.17825000000003,597.2826086956522,125.63279166666668C602.9710144927536,134.0873333333333,608.6594202898551,139.68266666666662,614.3478260869565,145.00908333333328C620.036231884058,150.33549999999994,625.7246376811594,155.39299999999994,631.4130434782609,157.7578333333333C637.1014492753624,160.12266666666665,642.7898550724639,159.79483333333334,648.4782608695652,160.22238527766336C654.1666666666666,160.64993722199335,659.8550724637681,161.83287444398673,665.5434782608695,162.6493412487621C671.231884057971,163.46580805353753,676.9202898550724,163.915804441095,682.6086956521739,165.34148203535372C688.2971014492754,166.76715962961245,693.9855072463769,169.16851843057245,699.6739130434784,170.84593767301078C705.3623188405796,172.5233569154491,711.0507246376811,173.47683659936578,716.7391304347826,171.5459274865029C722.427536231884,169.61501837363997,728.1159420289855,164.7997204639975,733.804347826087,159.0397951099475C739.4927536231885,153.27986975589752,745.18115942029,146.57531695744004,750.8695652173914,140.33633744932087C756.5579710144929,134.0973579412017,762.2463768115941,128.32395172342083,767.9347826086956,122.21229006316459C773.623188405797,116.10062840290834,779.3115942028985,109.65071130017667,782.1557971014494,106.42575274881084L785,103.20079419744499L785,412.296658382945L782.1557971014494,406.97845124206077C779.3115942028985,401.66024410117666,773.623188405797,391.0238298194083,767.9347826086956,378.6626889776646C762.2463768115941,366.3015481359209,756.5579710144929,352.21568073420167,750.8695652173914,338.59384430943754C745.18115942029,324.97200788467336,739.4927536231885,311.8142024368642,733.804347826087,298.13019657266426C728.1159420289855,284.4461907084642,722.427536231884,270.23598442787335,716.7391304347826,259.71510428453627C711.0507246376811,249.19422414119913,705.3623188405796,242.3626701351158,699.6739130434781,235.57116127626082C693.9855072463769,228.7796524174058,688.2971014492754,222.02818870577914,682.6086956521739,215.96707594235374C676.9202898550724,209.90596317892832,671.231884057971,204.53520136370415,665.5434782608695,199.04624719801208C659.8550724637681,193.55729303232,654.1666666666666,187.95014651615998,648.4782608695652,184.19048992474666C642.7898550724639,180.43083333333334,637.1014492753624,178.51866666666663,631.4130434782609,174.4510833333333C625.7246376811594,170.3835,620.036231884058,164.16049999999998,614.3478260869565,158.01624999999999C608.6594202898551,151.87199999999999,602.9710144927536,145.8065,597.2826086956521,136.81820833333333C591.5942028985507,127.82991666666665,585.9057971014493,115.91883333333334,580.2173913043478,106.54029166666668C574.5289855072464,97.16175000000003,568.8405797101449,90.31575000000002,563.1521739130435,84.95141666666666C557.463768115942,79.58708333333333,551.7753623188406,75.70441666666666,546.0869565217391,72.72183333333332C540.3985507246376,69.73925000000001,534.7101449275361,67.65675000000003,529.0217391304348,68.0297916666667C523.3333333333334,68.40283333333338,517.6449275362319,71.23141666666668,511.95652173913044,70.43779166666667C506.268115942029,69.64416666666666,500.57971014492756,65.22833333333335,494.8913043478262,59.801583333333355C489.2028985507247,54.374833333333356,483.5144927536232,47.93716666666669,477.82608695652175,43.00595833333335C472.1376811594203,38.07475,466.4492753623188,34.649999999999984,460.76086956521743,32.209624999999996C455.072463768116,29.769250000000003,449.3840579710145,28.31325000000004,443.695652173913,30.132958333333374C438.00724637681157,31.952666666666705,432.3188405797102,37.04808333333333,426.63043478260875,43.94979166666665C420.94202898550725,50.851499999999966,415.25362318840575,59.559499999999986,409.5652173913043,63.13708333333332C403.8768115942028,66.71466666666666,398.18840579710144,65.16183333333332,392.5,64.9352083333333C386.81159420289856,64.7085833333333,381.1231884057972,65.80816666666662,375.4347826086957,67.05416666666663C369.74637681159425,68.30016666666664,364.05797101449275,69.69258333333333,358.3695652173913,76.26587500000001C352.6811594202898,82.83916666666669,346.99275362318843,94.59333333333336,341.30434782608694,103.55858333333335C335.6159420289855,112.52383333333334,329.92753623188406,118.70016666666668,324.2391304347826,125.33675C318.5507246376812,131.97333333333336,312.8623188405797,139.07016666666672,307.17391304347825,143.98445833333338C301.4855072463768,148.89875000000004,295.7971014492753,151.6305,290.1086956521739,156.70783333333333C284.42028985507244,161.78516666666667,278.731884057971,169.20808333333332,273.04347826086956,176.0616666666667C267.3550724637681,182.91525000000001,261.6666666666667,189.19950000000003,255.97826086956525,196.01166666666666C250.28985507246375,202.82383333333334,244.60144927536234,210.16391666666667,238.91304347826087,217.7793333333333C233.2246376811594,225.39475000000002,227.53623188405797,233.28549999999998,221.84782608695653,240.08629166666665C216.15942028985503,246.88708333333338,210.4710144927536,252.5979166666667,204.78260869565213,257.20275C199.09420289855072,261.80758333333335,193.40579710144928,265.3064166666667,187.71739130434784,269.301375C182.02898550724638,273.29633333333334,176.3405797101449,277.7874166666667,170.65217391304347,281.95037499999995C164.96376811594203,286.11333333333334,159.2753623188406,289.9481666666667,153.58695652173913,293.1334583333333C147.89855072463766,296.31874999999997,142.21014492753622,298.8545,136.52173913043478,300.10983333333326C130.83333333333334,301.36516666666665,125.14492753623188,301.3400833333333,119.45652173913044,301.1166666666666C113.76811594202898,300.89325,108.07971014492755,300.47150000000005,102.39130434782608,300.81508333333335C96.70289855072463,301.15866666666665,91.01449275362319,302.26758333333333,85.32608695652173,302.94979166666667C79.6376811594203,303.632,73.94927536231883,303.8875,68.26086956521739,303.1387916666667C62.57246376811594,302.3900833333333,56.88405797101449,300.63716666666664,51.19565217391304,299.543125C45.507246376811594,298.44908333333336,39.81884057971015,298.0139166666667,34.130434782608695,297.4924166666667C28.442028985507246,296.9709166666667,22.753623188405797,296.36308333333335,17.065217391304348,295.9282083333334C11.376811594202898,295.49333333333334,5.688405797101449,295.2314166666667,2.8442028985507246,295.1004583333333L0,294.9695Z"
             id="path5">
            <title
               id="title5">Streaming</title>
          </path>
          <path
             fill="#5e4fa2"
             d="M0,244.70950000000005L2.8442028985507246,244.17545833333335C5.688405797101449,243.6414166666667,11.376811594202898,242.57333333333335,17.065217391304348,241.48862500000004C22.753623188405797,240.40391666666665,28.442028985507246,239.30258333333333,34.130434782608695,237.7351666666667C39.81884057971015,236.16774999999998,45.507246376811594,234.13425000000004,51.19565217391304,230.8900416666667C56.88405797101449,227.64583333333337,62.57246376811594,223.1909166666667,68.26086956521739,219.12420833333337C73.94927536231883,215.0575,79.6376811594203,211.379,85.32608695652173,210.8694583333333C91.01449275362319,210.35991666666663,96.70289855072463,213.01933333333332,102.39130434782608,214.33008333333336C108.07971014492755,215.64083333333335,113.76811594202898,215.6029166666667,119.45652173913044,214.73258333333334C125.14492753623188,213.86225000000002,130.83333333333334,212.1595,136.52173913043478,212.31525000000002C142.21014492753622,212.471,147.89855072463766,214.48525000000004,153.58695652173913,215.03212500000004C159.2753623188406,215.57900000000004,164.96376811594203,214.6585,170.65217391304347,212.5990416666667C176.3405797101449,210.53958333333333,182.02898550724638,207.34116666666668,187.71739130434784,205.660875C193.40579710144928,203.98058333333333,199.09420289855072,203.81841666666665,204.78260869565216,202.92591666666667C210.4710144927536,202.03341666666665,216.15942028985503,200.4105833333333,221.8478260869565,196.90620833333332C227.53623188405797,193.40183333333331,233.2246376811594,188.01591666666664,238.91304347826087,183.30841666666666C244.60144927536234,178.60091666666668,250.28985507246375,174.57183333333333,255.97826086956522,171.60791666666668C261.6666666666667,168.644,267.3550724637681,166.74524999999997,273.04347826086956,162.99324999999996C278.731884057971,159.24124999999995,284.42028985507244,153.63599999999994,290.1086956521739,149.97849999999997C295.7971014492753,146.32099999999994,301.4855072463768,144.61125,307.17391304347825,140.286125C312.8623188405797,135.961,318.5507246376812,129.0205,324.2391304347826,122.56766666666665C329.92753623188406,116.11483333333331,335.6159420289855,110.14966666666665,341.30434782608694,101.2713333333333C346.99275362318843,92.39299999999997,352.6811594202898,80.60149999999997,358.3695652173913,73.96987499999996C364.05797101449275,67.33824999999996,369.74637681159425,65.86649999999996,375.4347826086957,64.50791666666662C381.1231884057972,63.14933333333328,386.81159420289856,61.90391666666661,392.5,62.14745833333328C398.18840579710144,62.39099999999997,403.8768115942028,64.12349999999999,409.5652173913043,60.689416666666666C415.25362318840575,57.25533333333334,420.94202898550725,48.65466666666666,426.6304347826087,41.80662499999999C432.3188405797102,34.95858333333333,438.00724637681157,29.863166666666682,443.695652173913,28.076708333333347C449.3840579710145,26.29025000000001,455.072463768116,27.812749999999983,460.7608695652175,30.258374999999983C466.4492753623188,32.703999999999986,472.1376811594203,36.072750000000006,477.82608695652175,41.054125000000006C483.5144927536232,46.035500000000006,489.2028985507247,52.62949999999997,494.89130434782606,58.147249999999964C500.57971014492756,63.664999999999964,506.268115942029,68.1065,511.9565217391305,68.89604166666668C517.6449275362319,69.68558333333335,523.3333333333334,66.8231666666667,529.0217391304348,65.55295833333334C534.7101449275361,64.28275000000001,540.3985507246376,64.60474999999997,546.0869565217391,66.31274999999997C551.7753623188406,68.02074999999996,557.463768115942,71.11474999999999,563.1521739130435,75.89516666666667C568.8405797101449,80.67558333333334,574.5289855072464,87.14241666666668,580.2173913043479,95.84195833333335C585.9057971014493,104.5415,591.5942028985507,115.47375000000004,597.2826086956522,123.69845833333335C602.9710144927536,131.9231666666667,608.6594202898551,137.44033333333334,614.3478260869565,142.5824166666667C620.036231884058,147.7245,625.7246376811594,152.4915,631.4130434782609,154.51975000000002C637.1014492753624,156.548,642.7898550724639,155.8375,648.4782608695652,155.83183294487085C654.1666666666666,155.82616588974167,659.8550724637681,156.52533177948334,665.5434782608695,156.8184436532146C671.231884057971,157.11155552694584,676.9202898550724,156.99861338466667,682.6086956521739,157.93499046327625C688.2971014492754,158.87136754188583,693.9855072463769,160.85706384138416,699.6739130434784,161.80289698963833C705.3623188405796,162.7487301378925,711.0507246376811,162.65470013490253,716.7391304347826,160.0764930414621C722.427536231884,157.4982859480217,728.1159420289855,152.43590176413088,733.804347826087,146.3524787229342C739.4927536231885,140.2690556817375,745.18115942029,133.164593783235,750.8695652173914,126.55109844700752C756.5579710144929,119.93760311078002,762.2463768115941,113.8150743368275,767.9347826086956,107.06293966777207C773.623188405797,100.31080499871666,779.3115942028985,92.92906443455836,782.1557971014494,89.2381941524792L785,85.54732387040002L785,103.20079419744499L782.1557971014494,106.42575274881084C779.3115942028985,109.65071130017667,773.623188405797,116.10062840290834,767.9347826086956,122.21229006316459C762.2463768115941,128.32395172342083,756.5579710144929,134.0973579412017,750.8695652173914,140.33633744932087C745.18115942029,146.57531695744004,739.4927536231885,153.27986975589752,733.804347826087,159.0397951099475C728.1159420289855,164.7997204639975,722.427536231884,169.61501837363997,716.7391304347826,171.54592748650285C711.0507246376811,173.47683659936578,705.3623188405796,172.5233569154491,699.6739130434781,170.84593767301078C693.9855072463769,169.16851843057245,688.2971014492754,166.76715962961245,682.6086956521739,165.34148203535372C676.9202898550724,163.915804441095,671.231884057971,163.46580805353753,665.5434782608695,162.6493412487621C659.8550724637681,161.83287444398673,654.1666666666666,160.64993722199335,648.4782608695652,160.22238527766334C642.7898550724639,159.79483333333334,637.1014492753624,160.12266666666665,631.4130434782609,157.7578333333333C625.7246376811594,155.39299999999994,620.036231884058,150.33549999999994,614.3478260869565,145.00908333333328C608.6594202898551,139.68266666666662,602.9710144927536,134.0873333333333,597.2826086956521,125.63279166666666C591.5942028985507,117.17825000000003,585.9057971014493,105.86450000000004,580.2173913043478,96.96662500000004C574.5289855072464,88.06875000000004,568.8405797101449,81.58675000000004,563.1521739130435,76.80925000000002C557.463768115942,72.03175,551.7753623188406,68.95874999999997,546.0869565217391,67.33008333333332C540.3985507246376,65.70141666666665,534.7101449275361,65.51708333333336,529.0217391304348,66.87945833333336C523.3333333333334,68.24183333333337,517.6449275362319,71.15091666666667,511.95652173913044,70.39754166666667C506.268115942029,69.64416666666666,500.57971014492756,65.22833333333335,494.8913043478262,59.801583333333355C489.2028985507247,54.374833333333356,483.5144927536232,47.93716666666669,477.82608695652175,43.00595833333335C472.1376811594203,38.07475,466.4492753623188,34.649999999999984,460.76086956521743,32.209624999999996C455.072463768116,29.769250000000003,449.3840579710145,28.31325000000004,443.695652173913,30.132958333333374C438.00724637681157,31.952666666666705,432.3188405797102,37.04808333333333,426.63043478260875,43.94979166666665C420.94202898550725,50.851499999999966,415.25362318840575,59.559499999999986,409.5652173913043,63.13708333333332C403.8768115942028,66.71466666666666,398.18840579710144,65.16183333333332,392.5,64.9352083333333C386.81159420289856,64.7085833333333,381.1231884057972,65.80816666666662,375.4347826086957,67.05416666666663C369.74637681159425,68.30016666666664,364.05797101449275,69.69258333333333,358.3695652173913,76.26587500000001C352.6811594202898,82.83916666666669,346.99275362318843,94.59333333333336,341.30434782608694,103.55858333333335C335.6159420289855,112.52383333333334,329.92753623188406,118.70016666666668,324.2391304347826,125.33675C318.5507246376812,131.97333333333336,312.8623188405797,139.07016666666672,307.17391304347825,143.98445833333338C301.4855072463768,148.89875000000004,295.7971014492753,151.6305,290.1086956521739,156.70783333333333C284.42028985507244,161.78516666666667,278.731884057971,169.20808333333332,273.04347826086956,176.0616666666667C267.3550724637681,182.91525000000001,261.6666666666667,189.19950000000003,255.97826086956525,196.01166666666666C250.28985507246375,202.82383333333334,244.60144927536234,210.16391666666667,238.91304347826087,217.7793333333333C233.2246376811594,225.39475000000002,227.53623188405797,233.28549999999998,221.84782608695653,240.08629166666665C216.15942028985503,246.88708333333338,210.4710144927536,252.5979166666667,204.78260869565213,257.20275C199.09420289855072,261.80758333333335,193.40579710144928,265.3064166666667,187.71739130434784,269.301375C182.02898550724638,273.29633333333334,176.3405797101449,277.7874166666667,170.65217391304347,281.95037499999995C164.96376811594203,286.11333333333334,159.2753623188406,289.9481666666667,153.58695652173913,293.1334583333333C147.89855072463766,296.31874999999997,142.21014492753622,298.8545,136.52173913043478,300.10983333333326C130.83333333333334,301.36516666666665,125.14492753623188,301.3400833333333,119.45652173913044,301.1166666666666C113.76811594202898,300.89325,108.07971014492755,300.47150000000005,102.39130434782608,300.81508333333335C96.70289855072463,301.15866666666665,91.01449275362319,302.26758333333333,85.32608695652173,302.94979166666667C79.6376811594203,303.632,73.94927536231883,303.8875,68.26086956521739,303.1387916666667C62.57246376811594,302.3900833333333,56.88405797101449,300.63716666666664,51.19565217391304,299.543125C45.507246376811594,298.44908333333336,39.81884057971015,298.0139166666667,34.130434782608695,297.4924166666667C28.442028985507246,296.9709166666667,22.753623188405797,296.36308333333335,17.065217391304348,295.9282083333334C11.376811594202898,295.49333333333334,5.688405797101449,295.2314166666667,2.8442028985507246,295.1004583333333L0,294.9695Z"
             id="path6">
            <title
               id="title6">Vinyl</title>
          </path>
        </g>
        <g
           id="xAxis"
           transform="translate(0,560)"
           fill="none"
           font-size="10"
           font-family="sans-serif"
           text-anchor="middle">
          <path
             class="domain"
             stroke="currentColor"
             d="M0.5,0.5H785.5"
             id="path7" />
          <g
             class="tick"
             opacity="1"
             transform="translate(34.630434782608695,0)"
             id="g7">
            <line
               stroke="currentColor"
               y2="6"
               id="line7" />
            <text
               fill="currentColor"
               y="9"
               dy="0.70999998em"
               id="text7">1975</text>
          </g>
          <g
             class="tick"
             opacity="1"
             transform="translate(119.95652173913044,0)"
             id="g8">
            <line
               stroke="currentColor"
               y2="6"
               id="line8" />
            <text
               fill="currentColor"
               y="9"
               dy="0.70999998em"
               id="text8">1980</text>
          </g>
          <g
             class="tick"
             opacity="1"
             transform="translate(205.28260869565216,0)"
             id="g9">
            <line
               stroke="currentColor"
               y2="6"
               id="line9" />
            <text
               fill="currentColor"
               y="9"
               dy="0.70999998em"
               id="text9">1985</text>
          </g>
          <g
             class="tick"
             opacity="1"
             transform="translate(290.6086956521739,0)"
             id="g10">
            <line
               stroke="currentColor"
               y2="6"
               id="line10" />
            <text
               fill="currentColor"
               y="9"
               dy="0.70999998em"
               id="text10">1990</text>
          </g>
          <g
             class="tick"
             opacity="1"
             transform="translate(375.9347826086957,0)"
             id="g11">
            <line
               stroke="currentColor"
               y2="6"
               id="line11" />
            <text
               fill="currentColor"
               y="9"
               dy="0.70999998em"
               id="text11">1995</text>
          </g>
          <g
             class="tick"
             opacity="1"
             transform="translate(461.26086956521743,0)"
             id="g12">
            <line
               stroke="currentColor"
               y2="6"
               id="line12" />
            <text
               fill="currentColor"
               y="9"
               dy="0.70999998em"
               id="text12">2000</text>
          </g>
          <g
             class="tick"
             opacity="1"
             transform="translate(546.5869565217391,0)"
             id="g13">
            <line
               stroke="currentColor"
               y2="6"
               id="line13" />
            <text
               fill="currentColor"
               y="9"
               dy="0.70999998em"
               id="text13">2005</text>
          </g>
          <g
             class="tick"
             opacity="1"
             transform="translate(631.9130434782609,0)"
             id="g14">
            <line
               stroke="currentColor"
               y2="6"
               id="line14" />
            <text
               fill="currentColor"
               y="9"
               dy="0.70999998em"
               id="text14">2010</text>
          </g>
          <g
             class="tick"
             opacity="1"
             transform="translate(717.2391304347826,0)"
             id="g15">
            <line
               stroke="currentColor"
               y2="6"
               id="line15" />
            <text
               fill="currentColor"
               y="9"
               dy="0.70999998em"
               id="text15">2015</text>
          </g>
        </g>
        <text
           y="556"
           x="785"
           text-anchor="end"
           style="font-family: Arial, sans-serif; font-size: 12px; fill: rgb(123, 123, 123); font-weight: bold;"
           id="text16">Year</text>
        <text
           x="4"
           text-anchor="start"
           dominant-baseline="hanging"
           style="font-weight:bold;font-size:12px;font-family:Arial, sans-serif;fill:#7b7b7b"
           id="text17">Revenue in Millions</text>
        <g
           id="labels">
          <text
             x="255.18237"
             y="335.04688"
             text-anchor="middle"
             alignment-baseline="middle"
             style="font-weight:bold;font-size:16px;font-family:Arial, sans-serif;fill:#000000"
             id="text18">Tape</text>
          <text
             x="451.8006"
             y="268.4082"
             text-anchor="middle"
             alignment-baseline="middle"
             style="font-weight:bold;font-size:16px;font-family:Arial, sans-serif;fill:#000000"
             id="text19">Disc</text>
          <text
             x="657.59357"
             y="262.39349"
             text-anchor="middle"
             alignment-baseline="middle"
             style="font-weight:bold;font-size:16px;font-family:Arial, sans-serif;fill:#000000"
             id="text20">Download</text>
          <text
             x="530.12823"
             y="83.337212"
             text-anchor="middle"
             alignment-baseline="middle"
             style="font-weight:bold;font-size:13.3333px;font-family:Arial, sans-serif;fill:#000000"
             id="text21">Other</text>
          <text
             x="776.99261"
             y="211.24696"
             text-anchor="end"
             alignment-baseline="middle"
             style="font-weight:bold;font-size:16px;font-family:Arial, sans-serif;fill:#000000"
             id="text22">Streaming</text>
          <text
             x="105.63383"
             y="260.33557"
             text-anchor="middle"
             alignment-baseline="middle"
             style="font-weight:bold;font-size:16px;font-family:Arial, sans-serif;fill:#000000"
             id="text23">Vinyl</text>
        </g>
      </g>
      <text
         x="4"
         y="4"
         style="font-family: Arial, sans-serif; font-size: 12px; fill: black; font-weight: bold; dominant-baseline: hanging;"
         id="text24" />
    </g>
  </g>
</svg>
