<?xml version="1.0" encoding="UTF-8" standalone="no"?>
<svg
   width="805"
   height="600"
   version="1.1"
   id="svg24"
   sodipodi:docname="Visual Data Analysis Bump Chart.svg"
   inkscape:version="1.3.2 (091e20e, 2023-11-25)"
   xmlns:inkscape="http://www.inkscape.org/namespaces/inkscape"
   xmlns:sodipodi="http://sodipodi.sourceforge.net/DTD/sodipodi-0.dtd"
   xmlns="http://www.w3.org/2000/svg"
   xmlns:svg="http://www.w3.org/2000/svg">
  <defs
     id="defs24" />
  <sodipodi:namedview
     id="namedview24"
     pagecolor="#ffffff"
     bordercolor="#000000"
     borderopacity="0.25"
     inkscape:showpageshadow="2"
     inkscape:pageopacity="0.0"
     inkscape:pagecheckerboard="0"
     inkscape:deskcolor="#d1d1d1"
     inkscape:zoom="0.77054217"
     inkscape:cx="397.77187"
     inkscape:cy="285.51325"
     inkscape:window-width="1312"
     inkscape:window-height="739"
     inkscape:window-x="106"
     inkscape:window-y="25"
     inkscape:window-maximized="0"
     inkscape:current-layer="svg24" />
  <g
     id="viz"
     transform="translate(-10.861826,-5.4309132)">
    <g
       id="g24">
      <g
         transform="translate(30,20)"
         id="g23">
        <g
           id="g6">
          <path
             fill="#69bda9"
             d="m 0,294.9695 2.7699244,0.13096 c 2.7699244,0.13096 8.3097736,0.39287 13.8496216,0.82775 5.539849,0.43487 11.079698,1.04271 16.619547,1.56421 5.539849,0.5215 11.079698,0.95666 16.627135,2.0507 5.547438,1.09405 11.102464,2.84696 16.649902,3.59567 5.547438,0.74871 11.087286,0.49321 16.627135,-0.189 5.539849,-0.68221 11.079698,-1.79112 16.619547,-2.13471 5.539848,-0.34358 11.079698,0.0782 16.627138,0.30159 5.54743,0.22341 11.10246,0.2485 16.6499,-1.84017 5.54744,-2.08867 11.08729,-6.29108 16.62713,-10.30971 5.53985,-4.01862 11.0797,-7.85346 16.61955,-23.62683 5.53985,-15.77338 11.0797,-43.48529 16.62714,-57.42234 5.54743,-13.93704 11.10246,-14.0992 16.6499,-14.9917 5.54744,-0.8925 11.08728,-2.51534 16.62713,-6.01971 5.53985,-3.50438 11.0797,-8.89029 16.61955,-14.43113 5.53985,-5.54083 11.0797,-11.23658 16.62713,-15.03383 5.54744,-3.79725 11.10247,-5.696 16.64991,-9.448 5.54743,-3.752 11.08728,-9.35725 16.62713,13.32658 5.53985,22.68384 11.0797,73.65675 16.61955,101.49929 5.53985,27.84255 11.0797,32.55471 16.62713,38.84421 5.54744,6.2895 11.10247,14.15634 16.64991,23.64717 5.54743,9.49083 11.08728,20.60567 16.62713,31.07212 5.53985,10.46646 11.0797,20.28455 16.61955,28.2488 5.53985,7.96425 11.07969,14.07466 16.62713,18.39862 5.54744,4.32396 11.10247,6.86146 16.6499,12.23804 5.54744,5.37659 11.08729,13.59225 16.62714,23.37446 5.53985,9.78221 11.0797,21.13096 16.61955,29.4245 5.53984,8.29354 11.07969,13.53188 16.62713,15.68642 5.54744,2.15454 11.10247,1.22529 16.6499,1.2265 5.54744,10e-4 11.08729,0.93287 16.62714,-1.88263 5.53985,-2.8155 11.0797,-9.37816 16.61954,-8.85754 5.53985,0.52063 11.0797,8.12454 16.62714,12.70092 5.54744,4.57637 11.10246,6.12521 16.6499,5.40746 5.54744,-0.71775 11.08729,-3.70209 16.62714,-8.42359 5.53985,-4.7215 11.07969,-11.18016 16.61954,-19.86337 5.53985,-8.68321 11.0797,-19.59096 16.62714,-27.79817 5.54744,-8.20721 11.10246,-13.71387 16.6499,-18.85071 5.54744,-5.13683 11.08729,-9.90383 16.62714,-11.93208 5.53984,-2.02825 11.07969,-1.31775 16.61954,-1.31208 5.53985,0.006 11.0797,-0.6935 16.62714,-0.98661 5.54744,-0.29312 11.10246,-0.18017 16.6499,-1.11655 5.54744,-0.93638 11.08729,-2.92207 16.62713,-3.86791 5.53985,-0.94583 11.0797,-0.8518 16.61955,1.72641 5.53985,2.5782 11.0797,7.64059 16.62714,13.72401 5.54743,6.08342 11.10246,13.18789 16.6499,19.80138 5.54744,6.6135 11.08728,12.73603 16.62713,19.48816 5.53985,6.75214 11.0797,14.13388 13.84963,17.82475 L 765,474.45268 v 0 l -2.76992,-3.69087 c -2.76993,-3.69087 -8.30978,-11.07261 -13.84963,-17.82475 -5.53985,-6.75213 -11.07969,-12.87466 -16.62713,-19.48816 -5.54744,-6.61349 -11.10247,-13.71796 -16.6499,-19.80138 -5.54744,-6.08342 -11.08729,-11.14581 -16.62714,-13.72401 -5.53985,-2.57821 -11.0797,-2.67224 -16.61955,-1.72641 -5.53984,0.94584 -11.07969,2.93153 -16.62713,3.86791 -5.54744,0.93638 -11.10246,0.82343 -16.6499,1.11655 -5.54744,0.29311 -11.08729,0.99227 -16.62714,0.98661 -5.53985,-0.006 -11.0797,-0.71617 -16.61954,1.31208 -5.53985,2.02825 -11.0797,6.79525 -16.62714,11.93733 -5.54744,5.14209 -11.10246,10.65925 -16.6499,18.88396 -5.54744,8.22471 -11.08729,19.15696 -16.62714,27.8565 -5.53985,8.69954 -11.07969,15.16638 -16.61954,19.94679 -5.53985,4.78042 -11.0797,7.87442 -16.62714,8.70884 -5.54744,0.83441 -11.10246,-0.59075 -16.6499,-4.61296 -5.54744,-4.02221 -11.08729,-10.64146 -16.62714,-10.0765 -5.53984,0.56496 -11.07969,8.31412 -16.61954,12.61887 -5.53985,4.30475 -11.0797,5.16509 -16.62714,7.61854 -5.54743,2.45346 -11.10246,6.50005 -16.6499,8.69834 -5.54744,2.19829 -11.08729,2.54829 -16.62713,-0.59034 -5.53985,-3.13862 -11.0797,-9.76587 -16.61955,-16.35958 -5.53985,-6.59371 -11.0797,-13.15387 -16.62714,-15.14537 -5.54743,-1.9915 -11.10246,0.58566 -16.6499,1.41662 -5.54744,0.83096 -11.08728,-0.0843 -16.62713,-1.30112 -5.53985,-1.21684 -11.0797,-2.73525 -16.61955,-9.26771 -5.53985,-6.53246 -11.0797,-18.07896 -16.62713,-26.61429 -5.54744,-8.53534 -11.10247,-14.0595 -16.64991,-20.14075 -5.54743,-6.08125 -11.08728,-12.71959 -16.62713,-38.72346 -5.53985,-26.00388 -11.0797,-71.37329 -16.61955,-92.36313 -5.53985,-20.98983 -11.0797,-17.60008 -16.62713,-15.5275 -5.54744,2.07259 -11.10247,2.828 -16.64991,3.32125 -5.54743,0.49325 -11.08728,0.72434 -16.62713,0.76492 -5.53985,0.0406 -11.0797,-0.10933 -16.61955,0.11379 -5.53985,0.22313 -11.07969,0.81929 -16.62713,1.03746 -5.54744,0.21817 -11.10247,0.0583 -16.6499,10.49187 -5.54744,10.43355 -11.08729,31.46046 -16.62714,41.61401 -5.53985,10.15354 -11.0797,9.4337 -16.61955,10.91424 -5.53984,1.48055 -11.07969,5.16146 -16.62713,6.15055 -5.54744,0.98908 -11.10247,-0.71367 -16.6499,-1.584 -5.54744,-0.87034 -11.08729,-0.90825 -16.627138,0.4025 -5.539849,1.31075 -11.079698,3.97016 -16.619547,3.46062 -5.539849,-0.50954 -11.079697,-4.18804 -16.627135,-8.25475 -5.547438,-4.06671 -11.102464,-8.52162 -16.649902,-11.76583 -5.547437,-3.24421 -11.087286,-5.27771 -16.627135,-6.84513 -5.539849,-1.56741 -11.079698,-2.66875 -16.619547,-3.75346 -5.539848,-1.0847 -11.0796972,-2.15279 -13.8496216,-2.68683 L 0,315.2905 Z"
             id="path1">
            <title
               id="title1">Tape</title>
          </path>
          <path
             fill="#9e0142"
             d="m 0,315.2905 2.7699244,0.53404 c 2.7699244,0.53404 8.3097736,1.60213 13.8496216,2.68683 5.539849,1.08471 11.079698,2.18605 16.619547,3.75346 5.539849,1.56742 11.079698,3.60092 16.627135,6.84513 5.547438,3.24421 11.102464,7.69912 16.649902,11.76583 5.547438,4.06671 11.087286,7.74521 16.627135,8.25475 5.539849,0.50954 11.079698,-2.14987 16.619547,-3.46062 5.539848,-1.31075 11.079698,-1.27284 16.627138,-0.4025 5.54743,0.87033 11.10246,2.57308 16.6499,2.41733 5.54744,-0.15575 11.08729,-2.17 16.62713,-2.81721 5.53985,-0.64721 11.0797,0.0726 16.61955,1.5295 5.53985,1.45688 11.0797,3.65079 16.62714,3.15934 5.54743,-0.49146 11.10246,-3.6683 16.6499,-7.5988 5.54744,-3.9305 11.08728,-8.61466 16.62713,-18.77987 5.53985,-10.16521 11.0797,-25.81146 16.61955,-33.75013 5.53985,-7.93866 11.0797,-8.16975 16.62713,-8.663 5.54744,-0.49325 11.10247,-1.24866 16.64991,-3.32125 5.54743,-2.07258 11.08728,-5.46233 16.62713,-30.6055 5.53985,-25.14316 11.0797,-72.03975 16.61955,-98.95829 5.53985,-26.91854 11.0797,-33.85904 16.62713,-40.31187 5.54744,-6.45284 11.10247,-12.418003 16.64991,-21.296337 5.54743,-8.878333 11.08728,-20.669833 16.62713,-27.301458 5.53985,-6.631625 11.0797,-8.103375 16.61955,-9.461958 5.53985,-1.358584 11.07969,-2.604 16.62713,-2.360459 5.54744,0.243542 11.10247,1.976042 16.6499,-1.458041 5.54744,-3.434084 11.08729,-12.03475 16.62714,-18.882792 5.53985,-6.848042 11.0797,-11.943458 16.61955,-13.729917 5.53984,-1.786458 11.07969,-0.263958 16.62713,2.181667 5.54744,2.445625 11.10247,5.814375 16.6499,10.79575 5.54744,4.981375 11.08729,11.575375 16.62714,15.426458 5.53985,3.851084 11.0797,4.95925 16.61954,4.082125 5.53985,-0.877125 11.0797,-3.739541 16.62714,-5.00975 5.54744,-1.270208 11.10246,-0.948208 16.6499,0.759792 5.54744,1.708 11.08729,4.802 16.62714,9.582417 5.53985,4.780416 11.07969,11.24725 16.61954,19.946791 5.53985,8.699542 11.0797,19.631792 16.62714,28.689834 5.54744,9.058038 11.10246,16.241878 16.6499,22.217288 5.54744,5.97542 11.08729,10.74242 16.62714,12.77067 5.53984,2.02825 11.07969,1.31775 16.61954,19.74008 5.53985,18.42233 11.0797,55.97749 16.62714,74.13902 5.54744,18.16153 11.10246,16.92944 16.6499,26.65789 5.54744,9.72845 11.08729,30.41745 16.62713,42.23967 5.53985,11.82222 11.0797,14.77765 16.61955,20.52936 5.53985,5.7517 11.0797,14.29967 16.62714,22.36085 5.54743,8.06117 11.10246,15.63554 16.6499,24.16129 5.54744,8.52575 11.08728,18.00287 16.62713,26.52646 5.53985,8.52359 11.0797,16.09366 13.84963,19.87869 L 765,414.53809 v 21.52937 l -2.76992,-3.29342 c -2.76993,-3.29342 -8.30978,-9.88025 -13.84963,-15.81077 -5.53985,-5.93051 -11.07969,-11.2047 -16.62713,-17.20559 -5.54744,-6.00089 -11.10247,-12.72847 -16.6499,-18.52875 -5.54744,-5.80028 -11.08729,-10.67327 -16.62714,-12.64268 -5.53985,-1.9694 -11.0797,-1.03523 -16.61955,-8.79098 -5.53984,-7.75575 -11.07969,-24.20143 -16.62713,-29.79082 -5.54744,-5.58939 -11.10246,-0.32249 -16.6499,-12.8761 -5.54744,-12.55361 -11.08729,-42.92773 -16.62714,-56.07779 -5.53985,-13.15006 -11.0797,-9.07606 -16.61954,-3.99581 -5.53985,5.08025 -11.0797,11.16675 -16.62714,17.34742 -5.54744,6.18066 -11.10246,12.4555 -16.6499,21.73629 -5.54744,9.28079 -11.08729,21.56754 -16.62714,35.66408 -5.53985,14.09654 -11.07969,30.00288 -16.61954,43.14829 -5.53985,13.14542 -11.0797,23.52992 -16.62714,34.027 -5.54744,10.49709 -11.10246,21.10675 -16.6499,26.77588 -5.54744,5.66912 -11.08729,6.39771 -16.62714,10.69083 -5.53984,4.29313 -11.07969,12.15079 -16.61954,18.17904 -5.53985,6.02825 -11.0797,10.22709 -16.62714,12.79113 -5.54743,2.56404 -11.10246,3.49329 -16.6499,1.33875 -5.54744,-2.15454 -11.08729,-7.39288 -16.62713,-15.68642 -5.53985,-8.29354 -11.0797,-19.64229 -16.61955,-29.4245 -5.53985,-9.78221 -11.0797,-17.99787 -16.62714,-23.37446 -5.54743,-5.37658 -11.10246,-7.91408 -16.6499,-12.23804 -5.54744,-4.32396 -11.08728,-10.43437 -16.62713,-18.39862 -5.53985,-7.96425 -11.0797,-17.78234 -16.61955,-28.2488 -5.53985,-10.46645 -11.0797,-21.58129 -16.62713,-31.07212 -5.54744,-9.49083 -11.10247,-17.35767 -16.64991,-23.64717 -5.54743,-6.2895 -11.08728,-11.00166 -16.62713,4.75188 -5.53985,15.75354 -11.0797,51.97279 -16.61955,66.70287 -5.53985,14.73009 -11.0797,7.971 -16.62713,2.1225 -5.54744,-5.8485 -11.10247,-10.78641 -16.64991,-16.09208 -5.54743,-5.30567 -11.08728,-10.97908 -16.62713,-9.86308 -5.53985,1.116 -11.0797,9.02141 -16.61955,12.16271 -5.53985,3.14129 -11.07969,1.51845 -16.62713,0.62595 -5.54744,-0.8925 -11.10247,-1.05466 -16.6499,-2.73495 -5.54744,-1.6803 -11.08729,-4.87871 -16.62714,-6.93817 -5.53985,-2.05946 -11.0797,-2.97996 -16.61955,-2.43309 -5.53984,0.54688 -11.07969,2.56113 -16.62713,2.71688 -5.54744,0.15575 -11.10247,-1.547 -16.6499,-2.41733 -5.54744,-0.87034 -11.08729,-0.90825 -16.627138,0.4025 -5.539849,1.31075 -11.079698,3.97016 -16.619547,3.46062 -5.539849,-0.50954 -11.079697,-4.18804 -16.627135,-8.25475 -5.547438,-4.06671 -11.102464,-8.52162 -16.649902,-11.76583 -5.547437,-3.24421 -11.087286,-5.27771 -16.627135,-6.84513 -5.539849,-1.56741 -11.079698,-2.66875 -16.619547,-3.75346 -5.539848,-1.0847 -11.0796972,-2.15279 -13.8496216,-2.68683 z"
             id="path2">
            <title
               id="title2">Disc</title>
          </path>
          <path
             fill="#f0704a"
             d="m 0,315.2905 2.7699244,0.53404 c 2.7699244,0.53404 8.3097736,1.60213 13.8496216,2.68683 5.539849,1.08471 11.079698,2.18605 16.619547,3.75346 5.539849,1.56742 11.079698,3.60092 16.627135,6.84513 5.547438,3.24421 11.102464,7.69912 16.649902,11.76583 5.547438,4.06671 11.087286,7.74521 16.627135,8.25475 5.539849,0.50954 11.079698,-2.14987 16.619547,-3.46062 5.539848,-1.31075 11.079698,-1.27284 16.627138,-0.4025 5.54743,0.87033 11.10246,2.57308 16.6499,1.584 5.54744,-0.98909 11.08729,-4.67 16.62713,-5.21688 5.53985,-0.54687 11.0797,2.04029 16.61955,4.93308 5.53985,2.8928 11.0797,6.09121 16.62714,7.7715 5.54743,1.6803 11.10246,1.84246 16.6499,2.73496 5.54744,0.8925 11.08728,2.51534 16.62713,6.01971 5.53985,3.50438 11.0797,8.89029 16.61955,13.59779 5.53985,4.7075 11.0797,8.73659 16.62713,11.7005 5.54744,2.96392 11.10247,4.86267 16.64991,8.61467 5.54743,3.752 11.08728,9.35725 16.62713,13.01475 5.53985,3.6575 11.0797,5.36725 16.61955,9.69238 5.53985,4.32512 11.0797,11.26562 16.62713,17.71845 5.54744,6.45284 11.10247,12.418 16.64991,21.29634 5.54743,8.87833 11.08728,20.66983 16.62713,27.30145 5.53985,6.63163 11.0797,8.10338 16.61955,9.46196 5.53985,1.35859 11.07969,2.604 16.62713,2.36046 5.54744,-0.24354 11.10247,-1.97604 16.6499,1.45804 5.54744,3.43409 11.08729,12.03475 16.62714,18.8828 5.53985,6.84804 11.0797,11.94345 16.61955,13.72991 5.53984,1.78646 11.07969,0.26396 16.62713,-2.18167 5.54744,-2.44562 11.10247,-5.81437 16.6499,-10.79575 5.54744,-4.98137 11.08729,-11.57537 16.62714,-17.09312 5.53985,-5.51775 11.0797,-9.95925 16.61954,-14.72638 5.53985,-4.76712 11.0797,-9.85987 16.62714,-22.12433 5.54744,-12.26446 11.10246,-31.70062 16.6499,-46.61096 5.54744,-14.91033 11.08729,-25.29483 16.62714,-38.44025 5.53985,-13.14541 11.07969,-29.05175 16.61954,-43.14829 5.53985,-14.09654 11.0797,-26.38329 16.62714,-35.66408 5.54744,-9.28079 11.10246,-15.55563 16.6499,-21.73629 5.54744,-6.18067 11.08729,-12.26717 16.62714,-17.34742 5.53984,-5.08025 11.07969,-9.15425 16.61954,-29.79158 5.53985,-20.63734 11.0797,-57.838 16.62714,-76.49481 5.54744,-18.6568 11.10246,-18.76975 16.6499,-17.83337 5.54744,0.93638 11.08729,2.92207 16.62713,18.30048 5.53985,15.37841 11.0797,44.14954 16.61955,65.51666 5.53985,21.36712 11.0797,35.33024 16.62714,48.69075 5.54743,13.36051 11.10246,26.1184 16.6499,39.36573 5.54744,13.24732 11.08728,26.98406 16.62713,38.70473 5.53985,11.72067 11.0797,21.42526 13.84963,26.27755 L 765,379.64319 v 29.8949 l -2.76992,-3.78503 c -2.76993,-3.78503 -8.30978,-11.3551 -13.84963,-19.87869 -5.53985,-8.52359 -11.07969,-18.00071 -16.62713,-26.52646 -5.54744,-8.52575 -11.10247,-16.10012 -16.6499,-24.16129 -5.54744,-8.06118 -11.08729,-16.60915 -16.62714,-33.85439 -5.53985,-17.24525 -11.0797,-43.18776 -16.61955,-55.00998 -5.53984,-11.82222 -11.07969,-9.52414 -16.62713,-7.75905 -5.54744,1.76509 -11.10246,2.99718 -16.6499,21.54607 -5.54744,18.54888 -11.08729,54.41456 -16.62714,73.16873 -5.53985,18.75417 -11.0797,20.39683 -16.61954,24.06658 -5.53985,3.66975 -11.0797,9.36659 -16.62714,15.5035 -5.54744,6.13692 -11.10246,12.71392 -16.6499,20.43371 -5.54744,7.71979 -11.08729,16.58238 -16.62714,24.63617 -5.53985,8.05379 -11.07969,15.29879 -16.61954,19.88029 -5.53985,4.5815 -11.0797,6.4995 -16.62714,12.85525 -5.54744,6.35575 -11.10246,17.14925 -16.6499,24.02196 -5.54744,6.87271 -11.08729,9.82462 -16.62714,13.52133 -5.53984,3.69671 -11.07969,8.13821 -16.61954,13.65596 -5.53985,5.51775 -11.0797,12.11175 -16.62714,17.09312 -5.54743,4.98138 -11.10246,8.35013 -16.6499,10.79575 -5.54744,2.44563 -11.08729,3.96813 -16.62713,2.18167 -5.53985,-1.78646 -11.0797,-6.88187 -16.61955,-13.72991 -5.53985,-6.84805 -11.0797,-15.44871 -16.62714,-18.8828 -5.54743,-3.43408 -11.10246,-1.70158 -16.6499,-1.45804 -5.54744,0.24354 -11.08728,-1.00187 -16.62713,-2.36046 -5.53985,-1.35858 -11.0797,-2.83033 -16.61955,-9.46196 -5.53985,-6.63162 -11.0797,-18.42312 -16.62713,-27.30145 -5.54744,-8.87834 -11.10247,-14.8435 -16.64991,-21.29634 -5.54743,-6.45283 -11.08728,-13.39333 -16.62713,-17.71845 -5.53985,-4.32513 -11.0797,-6.03488 -16.61955,-9.69238 -5.53985,-3.6575 -11.0797,-9.26275 -16.62713,-13.01475 -5.54744,-3.752 -11.10247,-5.65075 -16.64991,-8.61467 -5.54743,-2.96391 -11.08728,-6.993 -16.62713,-11.7005 -5.53985,-4.7075 -11.0797,-10.09341 -16.61955,-13.59779 -5.53985,-3.50437 -11.07969,-5.12721 -16.62713,-6.01971 -5.54744,-0.8925 -11.10247,-1.05466 -16.6499,-2.73495 -5.54744,-1.6803 -11.08729,-4.87871 -16.62714,-7.77151 -5.53985,-2.89279 -11.0797,-5.47995 -16.61955,-4.93308 -5.53984,0.54688 -11.07969,4.22779 -16.62713,5.21688 -5.54744,0.98908 -11.10247,-0.71367 -16.6499,-1.584 -5.54744,-0.87034 -11.08729,-0.90825 -16.627138,0.4025 -5.539849,1.31075 -11.079698,3.97016 -16.619547,3.46062 -5.539849,-0.50954 -11.079697,-4.18804 -16.627135,-8.25475 -5.547438,-4.06671 -11.102464,-8.52162 -16.649902,-11.76583 -5.547437,-3.24421 -11.087286,-5.27771 -16.627135,-6.84513 -5.539849,-1.56741 -11.079698,-2.66875 -16.619547,-3.75346 -5.539848,-1.0847 -11.0796972,-2.15279 -13.8496216,-2.68683 z"
             id="path3">
            <title
               id="title3">Download</title>
          </path>
          <path
             fill="#c3a253"
             d="m 0,315.2905 2.7699244,0.53404 c 2.7699244,0.53404 8.3097736,1.60213 13.8496216,2.68683 5.539849,1.08471 11.079698,2.18605 16.619547,3.75346 5.539849,1.56742 11.079698,3.60092 16.627135,6.84513 5.547438,3.24421 11.102464,7.69912 16.649902,11.76583 5.547438,4.06671 11.087286,7.74521 16.627135,8.25475 5.539849,0.50954 11.079698,-2.14987 16.619547,-3.46062 5.539848,-1.31075 11.079698,-1.27284 16.627138,-0.4025 5.54743,0.87033 11.10246,2.57308 16.6499,1.584 5.54744,-0.98909 11.08729,-4.67 16.62713,-5.21688 5.53985,-0.54687 11.0797,2.04029 16.61955,4.93308 5.53985,2.8928 11.0797,6.09121 16.62714,7.7715 5.54743,1.6803 11.10246,1.84246 16.6499,2.73496 5.54744,0.8925 11.08728,2.51534 16.62713,6.01971 5.53985,3.50438 11.0797,8.89029 16.61955,13.59779 5.53985,4.7075 11.0797,8.73659 16.62713,11.02734 5.54744,2.29075 11.10247,2.84316 16.64991,5.59008 5.54743,2.74692 11.08728,7.68833 16.62713,9.9525 5.53985,2.26417 11.0797,1.85108 16.61955,4.96371 5.53985,3.11262 11.0797,9.75096 16.62713,15.83221 5.54744,6.08125 11.10247,11.60541 16.64991,20.14075 5.54743,8.53533 11.08728,20.08183 16.62713,26.61429 5.53985,6.53246 11.0797,8.05087 16.61955,9.26771 5.53985,1.21683 11.07969,2.13208 16.62713,1.30112 5.54744,-0.83096 11.10247,-3.40812 16.6499,-1.41662 5.54744,1.9915 11.08729,8.55166 16.62714,15.14537 5.53985,6.59371 11.0797,13.22096 16.61955,16.35958 5.53984,3.13863 11.07969,2.78863 16.62713,0.59034 5.54744,-2.19829 11.10247,-6.24488 16.6499,-13.32075 5.54744,-7.07588 11.08729,-17.18104 16.62714,-26.16246 5.53985,-8.98142 11.0797,-16.83908 16.61954,-21.13221 5.53985,-4.29312 11.0797,-5.02171 16.62714,-4.46575 5.54744,0.55596 11.10246,2.39646 16.6499,2.35771 5.54744,-0.0387 11.08729,-1.95675 16.62714,-6.53825 5.53985,-4.5815 11.07969,-11.8265 16.61954,-17.17213 5.53985,-5.34562 11.0797,-8.79187 16.62714,-16.51166 5.54744,-7.71979 11.10246,-19.71313 16.6499,-25.03221 5.54744,-5.31908 11.08729,-3.96392 16.62714,-2.98767 5.53984,0.97625 11.07969,1.57359 16.61954,1.51092 5.53985,-0.0627 11.0797,-0.78534 16.62714,-1.31974 5.54744,-0.53441 11.10246,-0.88054 16.6499,-2.14926 5.54744,-1.26871 11.08729,-3.46001 16.62713,-2.21114 5.53985,1.24888 11.0797,5.93792 16.61955,10.84248 5.53985,4.90455 11.0797,10.02462 16.62714,16.1484 5.54743,6.12379 11.10246,13.25127 16.6499,19.62668 5.54744,6.3754 11.08728,11.99872 16.62713,18.5697 5.53985,6.57099 11.0797,14.08965 13.84963,17.84898 L 765,463.72093 v 10.73175 l -2.76992,-3.69087 c -2.76993,-3.69087 -8.30978,-11.07261 -13.84963,-17.82475 -5.53985,-6.75213 -11.07969,-12.87466 -16.62713,-19.48816 -5.54744,-6.61349 -11.10247,-13.71796 -16.6499,-19.80138 -5.54744,-6.08342 -11.08729,-11.14581 -16.62714,-16.01187 -5.53985,-4.86606 -11.0797,-9.53579 -16.61955,-10.66998 -5.53984,-1.13419 -11.07969,1.26717 -16.62713,2.69285 -5.54744,1.42568 -11.10246,1.87567 -16.6499,2.69214 -5.54744,0.81647 -11.08729,1.9994 -16.62714,2.42695 -5.53985,0.42756 -11.0797,0.0997 -16.61954,-0.47869 -5.53985,-0.57842 -11.0797,-1.40742 -16.62714,3.08041 -5.54744,4.48784 -11.10246,14.2925 -16.6499,22.42996 -5.54744,8.13746 -11.08729,14.60771 -16.62714,21.26175 -5.53985,6.65404 -11.07969,13.49188 -16.61954,18.79729 -5.53985,5.30542 -11.0797,9.07842 -16.62714,10.04059 -5.54744,0.96216 -11.10246,-0.8865 -16.6499,-2.64705 -5.54744,-1.76054 -11.08729,-3.43295 -16.62714,-0.98783 -5.53984,2.44513 -11.07969,9.00779 -16.61954,17.56513 -5.53985,8.55733 -11.0797,19.10933 -16.62714,26.09771 -5.54743,6.98837 -11.10246,10.41312 -16.6499,12.8535 -5.54744,2.44037 -11.08729,3.89637 -16.62713,2.07666 -5.53985,-1.81971 -11.0797,-6.91512 -16.61955,-13.81683 -5.53985,-6.90171 -11.0797,-15.60971 -16.62714,-19.18729 -5.54743,-3.57759 -11.10246,-2.02475 -16.6499,-1.79813 -5.54744,0.22663 -11.08728,-0.87296 -16.62713,-2.11896 -5.53985,-1.246 -11.0797,-2.63841 -16.61955,-9.21171 -5.53985,-6.57329 -11.0797,-18.32745 -16.62713,-27.2927 -5.54744,-8.96525 -11.10247,-15.14159 -16.64991,-21.77817 -5.54743,-6.63658 -11.08728,-13.73342 -16.62713,-16.75912 -5.53985,-3.02571 -11.0797,-1.9803 -16.61955,-4.26021 -5.53985,-2.27992 -11.0797,-7.88517 -16.62713,-11.63717 -5.54744,-3.752 -11.10247,-5.65075 -16.64991,-8.61467 -5.54743,-2.96391 -11.08728,-6.993 -16.62713,-11.7005 -5.53985,-4.7075 -11.0797,-10.09341 -16.61955,-13.59779 -5.53985,-3.50437 -11.07969,-5.12721 -16.62713,-6.01971 -5.54744,-0.8925 -11.10247,-1.05466 -16.6499,-2.73495 -5.54744,-1.6803 -11.08729,-4.87871 -16.62714,-7.77151 -5.53985,-2.89279 -11.0797,-5.47995 -16.61955,-4.93308 -5.53984,0.54688 -11.07969,4.22779 -16.62713,5.21688 -5.54744,0.98908 -11.10247,-0.71367 -16.6499,-1.584 -5.54744,-0.87034 -11.08729,-0.90825 -16.627138,0.4025 -5.539849,1.31075 -11.079698,3.97016 -16.619547,3.46062 -5.539849,-0.50954 -11.079697,-4.18804 -16.627135,-8.25475 -5.547438,-4.06671 -11.102464,-8.52162 -16.649902,-11.76583 -5.547437,-3.24421 -11.087286,-5.27771 -16.627135,-6.84513 -5.539849,-1.56741 -11.079698,-2.66875 -16.619547,-3.75346 -5.539848,-1.0847 -11.0796972,-2.15279 -13.8496216,-2.68683 z"
             id="path4">
            <title
               id="title4">Other</title>
          </path>
          <path
             fill="#e0f3a1"
             d="m 0,315.2905 2.7699244,0.53404 c 2.7699244,0.53404 8.3097736,1.60213 13.8496216,2.68683 5.539849,1.08471 11.079698,2.18605 16.619547,3.75346 5.539849,1.56742 11.079698,3.60092 16.627135,6.84513 5.547438,3.24421 11.102464,7.69912 16.649902,11.76583 5.547438,4.06671 11.087286,7.74521 16.627135,8.25475 5.539849,0.50954 11.079698,-2.14987 16.619547,-3.46062 5.539848,-1.31075 11.079698,-1.27284 16.627138,-0.4025 5.54743,0.87033 11.10246,2.57308 16.6499,1.584 5.54744,-0.98909 11.08729,-4.67 16.62713,-5.21688 5.53985,-0.54687 11.0797,2.04029 16.61955,4.93308 5.53985,2.8928 11.0797,6.09121 16.62714,7.7715 5.54743,1.6803 11.10246,1.84246 16.6499,2.73496 5.54744,0.8925 11.08728,2.51534 16.62713,6.01971 5.53985,3.50438 11.0797,8.89029 16.61955,12.76446 5.53985,3.87417 11.0797,6.23658 16.62713,9.2005 5.54744,2.96392 11.10247,6.52933 16.64991,11.11467 5.54743,4.58533 11.08728,10.19058 16.62713,13.84808 5.53985,3.6575 11.0797,5.36725 16.61955,9.69238 5.53985,4.32512 11.0797,11.26562 16.62713,17.71845 5.54744,6.45284 11.10247,12.418 16.64991,21.29634 5.54743,8.87833 11.08728,20.66983 16.62713,27.30145 5.53985,6.63163 11.0797,8.10338 16.61955,9.46196 5.53985,1.35859 11.07969,2.604 16.62713,2.36046 5.54744,-0.24354 11.10247,-1.97604 16.6499,1.45804 5.54744,3.43409 11.08729,12.03475 16.62714,18.8828 5.53985,6.84804 11.0797,11.94345 16.61955,13.72991 5.53984,1.78646 11.07969,0.26396 16.62713,-2.18167 5.54744,-2.44562 11.10247,-5.81437 16.6499,-10.79575 5.54744,-4.98137 11.08729,-11.57537 16.62714,-17.92645 5.53985,-6.35109 11.0797,-12.45925 16.61954,-13.28904 5.53985,-0.8298 11.0797,3.61879 16.62714,2.83008 5.54744,-0.78871 11.10246,-6.81471 16.6499,-11.71421 5.54744,-4.8995 11.08729,-8.6725 16.62714,-13.97792 5.53985,-5.30541 11.07969,-12.14325 16.61954,-23.68687 5.53985,-11.54363 11.0797,-27.79304 16.62714,-35.9305 5.54744,-8.13746 11.10246,-8.16296 16.6499,-14.29988 5.54744,-6.13691 11.08729,-18.38525 16.62714,-25.33075 5.53984,-6.9455 11.07969,-8.58816 16.61954,-11.98294 5.53985,-3.39477 11.0797,-8.54165 16.62714,-13.74854 5.54744,-5.20689 11.10246,-10.47379 16.6499,-27.59828 5.54744,-17.12448 11.08729,-46.10655 16.62713,-76.37113 5.53985,-30.26458 11.0797,-61.81168 16.61955,-80.11642 5.53985,-18.30473 11.0797,-23.36712 16.62714,-29.45054 5.54743,-6.08342 11.10246,-13.18789 16.6499,-19.80138 5.54744,-6.613497 11.08728,-12.736026 16.62713,-19.48816 5.53985,-6.752135 11.0797,-14.133876 13.84963,-17.824746 L 765,65.547324 V 374.64319 l -2.76992,-4.8523 c -2.76993,-4.85229 -8.30978,-14.55688 -13.84963,-26.27755 -5.53985,-11.72067 -11.07969,-25.45741 -16.62713,-38.70473 -5.54744,-13.24733 -11.10247,-26.00522 -16.6499,-39.36573 -5.54744,-13.36051 -11.08729,-27.32363 -16.62714,-21.47068 -5.53985,5.85295 -11.0797,31.52197 -16.61955,56.67246 -5.53984,25.15049 -11.07969,49.78246 -16.62713,62.27151 -5.54744,12.48905 -11.10246,12.83518 -16.6499,13.36959 -5.54744,0.5344 -11.08729,1.25707 -16.62714,1.31974 -5.53985,0.0627 -11.0797,-0.53467 -16.61954,4.70808 -5.53985,5.24275 -11.0797,16.32559 -16.62714,21.64467 -5.54744,5.31908 -11.10246,4.87442 -16.6499,12.47812 -5.54744,7.60371 -11.08729,23.2558 -16.62714,34.31875 -5.53985,11.06296 -11.07969,17.5368 -16.61954,22.25538 -5.53985,4.71858 -11.0797,7.68192 -16.62714,11.2275 -5.54744,3.54558 -11.10246,7.67342 -16.6499,7.47279 -5.54744,-0.20062 -11.08729,-4.72971 -16.62714,-3.94017 -5.53984,0.78955 -11.07969,6.89771 -16.61954,13.2488 -5.53985,6.35108 -11.0797,12.94508 -16.62714,17.92645 -5.54743,4.98138 -11.10246,8.35013 -16.6499,10.79575 -5.54744,2.44563 -11.08729,3.96813 -16.62713,2.18167 -5.53985,-1.78646 -11.0797,-6.88187 -16.61955,-13.72991 -5.53985,-6.84805 -11.0797,-15.44871 -16.62714,-18.8828 -5.54743,-3.43408 -11.10246,-1.70158 -16.6499,-1.45804 -5.54744,0.24354 -11.08728,-1.00187 -16.62713,-2.36046 -5.53985,-1.35858 -11.0797,-2.83033 -16.61955,-9.46196 -5.53985,-6.63162 -11.0797,-18.42312 -16.62713,-27.30145 -5.54744,-8.87834 -11.10247,-14.8435 -16.64991,-21.29634 -5.54743,-6.45283 -11.08728,-13.39333 -16.62713,-17.71845 -5.53985,-4.32513 -11.0797,-6.03488 -16.61955,-9.69238 -5.53985,-3.6575 -11.0797,-9.26275 -16.62713,-13.84808 -5.54744,-4.58534 -11.10247,-8.15075 -16.64991,-11.11467 -5.54743,-2.96392 -11.08728,-5.32633 -16.62713,-9.2005 -5.53985,-3.87417 -11.0797,-9.26008 -16.61955,-12.76446 -5.53985,-3.50437 -11.07969,-5.12721 -16.62713,-6.01971 -5.54744,-0.8925 -11.10247,-1.05466 -16.6499,-2.73495 -5.54744,-1.6803 -11.08729,-4.87871 -16.62714,-7.77151 -5.53985,-2.89279 -11.0797,-5.47995 -16.61955,-4.93308 -5.53984,0.54688 -11.07969,4.22779 -16.62713,5.21688 -5.54744,0.98908 -11.10247,-0.71367 -16.6499,-1.584 -5.54744,-0.87034 -11.08729,-0.90825 -16.627138,0.4025 -5.539849,1.31075 -11.079698,3.97016 -16.619547,3.46062 -5.539849,-0.50954 -11.079697,-4.18804 -16.627135,-8.25475 -5.547438,-4.06671 -11.102464,-8.52162 -16.649902,-11.76583 -5.547437,-3.24421 -11.087286,-5.27771 -16.627135,-6.84513 -5.539849,-1.56741 -11.079698,-2.66875 -16.619547,-3.75346 -5.539848,-1.0847 -11.0796972,-2.15279 -13.8496216,-2.68683 z"
             id="path5">
            <title
               id="title5">Streaming</title>
          </path>
          <path
             fill="#5e4fa2"
             d="m 0,239.7095 2.7699244,-0.53404 c 2.7699244,-0.53404 8.3097736,-1.60213 13.8496216,-2.68683 5.539849,-1.08471 11.079698,-2.18605 16.619547,-3.75346 5.539849,-1.56742 11.079698,-3.60092 16.627135,-6.84513 5.547438,-3.24421 11.102464,-7.69912 16.649902,-11.76583 5.547438,-4.06671 11.087286,-7.74521 16.627135,-8.25475 5.539849,-0.50954 11.079698,2.14987 16.619547,3.46062 5.539848,1.31075 11.079698,1.27284 16.627138,0.4025 5.54743,-0.87033 11.10246,-2.57308 16.6499,-3.25066 5.54744,-0.67759 11.08729,-0.33 16.62713,-0.61646 5.53985,-0.28646 11.0797,-1.20696 16.61955,11.473 5.53985,12.67996 11.0797,38.96037 16.62714,52.1805 5.54743,13.22012 11.10246,13.37996 16.6499,13.16179 5.54744,-0.21817 11.08728,-0.81433 16.62713,9.09187 5.53985,9.90621 11.0797,30.3148 16.61955,43.3558 5.53985,13.041 11.0797,18.71441 16.62713,24.02008 5.54744,5.30567 11.10247,10.24358 16.64991,16.09208 5.54743,5.8485 11.08728,12.60759 16.62713,19.19142 5.53985,6.58383 11.0797,12.99242 16.61955,19.74512 5.53985,6.75271 11.0797,13.84955 16.62713,20.48613 5.54744,6.63658 11.10247,12.81292 16.64991,21.77817 5.54743,8.96525 11.08728,20.71941 16.62713,27.2927 5.53985,6.5733 11.0797,7.96571 16.61955,9.21171 5.53985,1.246 11.07969,2.34559 16.62713,2.11896 5.54744,-0.22662 11.10247,-1.77946 16.6499,1.79813 5.54744,3.57758 11.08729,12.28558 16.62714,19.18729 5.53985,6.90171 11.0797,11.99712 16.61955,13.81683 5.53984,1.81971 11.07969,0.36371 16.62713,-2.07666 5.54744,-2.44038 11.10247,-5.86513 16.6499,-10.79634 5.54744,-4.93121 11.08729,-11.36887 16.62714,-18.46229 5.53985,-7.09342 11.0797,-14.84258 16.61954,-17.44112 5.53985,-2.59855 11.0797,-0.0465 16.62714,2.07283 5.54744,2.11929 11.10246,3.80579 16.6499,3.16737 5.54744,-0.63841 11.08729,-3.60175 16.62714,-8.32033 5.53985,-4.71858 11.07969,-11.19242 16.61954,-20.07396 5.53985,-8.88154 11.0797,-20.17079 16.62714,-27.7745 5.54744,-7.60371 11.10246,-11.52187 16.6499,-16.00971 5.54744,-4.48783 11.08729,-9.54533 16.62714,-11.91016 5.53984,-2.36484 11.07969,-2.037 16.61954,-2.46456 5.53985,-0.42755 11.0797,-1.61048 16.62714,-2.42695 5.54744,-0.81647 11.10246,-1.26646 16.6499,-2.69214 5.54744,-1.42568 11.08729,-3.82704 16.62713,-7.98563 5.53985,-4.15858 11.0797,-10.0744 16.61955,-10.59581 5.53985,-0.52142 11.0797,4.35157 16.62714,10.15185 5.54743,5.80028 11.10246,12.52786 16.6499,18.52875 5.54744,6.00089 11.08728,11.27508 16.62713,17.20559 5.53985,5.93052 11.0797,12.51735 13.84963,15.81077 L 765,441.06746 v 17.65347 l -2.76992,-3.75933 c -2.76993,-3.75933 -8.30978,-11.27799 -13.84963,-17.84898 -5.53985,-6.57098 -11.07969,-12.1943 -16.62713,-18.5697 -5.54744,-6.37541 -11.10247,-13.50289 -16.6499,-19.62668 -5.54744,-6.12378 -11.08729,-11.24385 -16.62714,-11.36973 -5.53985,-0.12588 -11.0797,4.74242 -16.61955,8.16943 -5.53984,3.427 -11.07969,5.41269 -16.62713,6.34907 -5.54744,0.93638 -11.10246,0.82343 -16.6499,1.11655 -5.54744,0.29311 -11.08729,0.99227 -16.62714,0.98661 -5.53985,-0.006 -11.0797,-0.71617 -16.61954,1.31208 -5.53985,2.02825 -11.0797,6.79525 -16.62714,11.09875 -5.54744,4.3035 -11.10246,8.1435 -16.6499,15.51738 -5.54744,7.37387 -11.08729,18.28162 -16.62714,26.96483 -5.53985,8.68321 -11.07969,15.14187 -16.61954,19.86337 -5.53985,4.7215 -11.0797,7.70584 -16.62714,8.42359 -5.54744,0.71775 -11.10246,-0.83109 -16.6499,-2.85821 -5.54744,-2.02713 -11.08729,-4.53254 -16.62714,-1.89784 -5.53984,2.63471 -11.07969,10.40955 -16.61954,17.59396 -5.53985,7.18442 -11.0797,13.77842 -16.62714,18.75979 -5.54743,4.98138 -11.10246,8.35013 -16.6499,10.79575 -5.54744,2.44563 -11.08729,3.96813 -16.62713,2.18167 -5.53985,-1.78646 -11.0797,-6.88187 -16.61955,-13.72991 -5.53985,-6.84805 -11.0797,-15.44871 -16.62714,-18.8828 -5.54743,-3.43408 -11.10246,-1.70158 -16.6499,-1.45804 -5.54744,0.24354 -11.08728,-1.00187 -16.62713,-2.36046 -5.53985,-1.35858 -11.0797,-2.83033 -16.61955,-9.46196 -5.53985,-6.63162 -11.0797,-18.42312 -16.62713,-27.30145 -5.54744,-8.87834 -11.10247,-14.8435 -16.64991,-21.29634 -5.54743,-6.45283 -11.08728,-13.39333 -16.62713,-19.55687 -5.53985,-6.16354 -11.0797,-11.55013 -16.61955,-16.71413 -5.53985,-5.164 -11.0797,-10.10541 -16.62713,-12.85233 -5.54744,-2.74692 -11.10247,-3.29933 -16.64991,-4.75675 -5.54743,-1.45742 -11.08728,-3.81983 -16.62713,-13.95292 -5.53985,-10.13308 -11.0797,-28.03683 -16.61955,-34.64662 -5.53985,-6.60979 -11.07969,-1.92563 -16.62713,2.00487 -5.54744,3.9305 -11.10247,7.10734 -16.6499,-3.79812 -5.54744,-10.90546 -11.08729,-35.89321 -16.62714,-46.46967 -5.53985,-10.57646 -11.0797,-6.74162 -16.61955,-2.723 -5.53984,4.01863 -11.07969,8.22104 -16.62713,10.30971 -5.54744,2.08867 -11.10247,2.06358 -16.6499,1.84017 -5.54744,-0.22342 -11.08729,-0.64517 -16.627138,-0.30159 -5.539849,0.34359 -11.079698,1.4525 -16.619547,2.13471 -5.539849,0.68221 -11.079697,0.93771 -16.627135,0.189 -5.547438,-0.74871 -11.102464,-2.50162 -16.649902,-3.59567 -5.547437,-1.09404 -11.087286,-1.5292 -16.627135,-2.0507 -5.539849,-0.5215 -11.079698,-1.12934 -16.619547,-1.56421 -5.539848,-0.43488 -11.0796972,-0.69679 -13.8496216,-0.82775 L 0,289.9695 Z"
             id="path6">
            <title
               id="title6">Vinyl</title>
          </path>
        </g>
        <g
           id="xAxis"
           transform="translate(0,560)"
           fill="none"
           font-size="10px"
           font-family="sans-serif"
           text-anchor="middle">
          <path
             class="domain"
             stroke="currentColor"
             d="m 0.5,0.5 h 765"
             id="path7" />
          <g
             class="tick"
             opacity="1"
             transform="translate(33.739093)"
             id="g7">
            <line
               stroke="currentColor"
               y2="6"
               id="line7"
               x1="0"
               y1="0"
               x2="0" />
            <text
               fill="currentColor"
               y="9"
               dy="0.70999998em"
               id="text7">1975</text>
          </g>
          <g
             class="tick"
             opacity="1"
             transform="translate(116.88236)"
             id="g8">
            <line
               stroke="currentColor"
               y2="6"
               id="line8"
               x1="0"
               y1="0"
               x2="0" />
            <text
               fill="currentColor"
               y="9"
               dy="0.70999998em"
               id="text8">1980</text>
          </g>
          <g
             class="tick"
             opacity="1"
             transform="translate(200.07116)"
             id="g9">
            <line
               stroke="currentColor"
               y2="6"
               id="line9"
               x1="0"
               y1="0"
               x2="0" />
            <text
               fill="currentColor"
               y="9"
               dy="0.70999998em"
               id="text9">1985</text>
          </g>
          <g
             class="tick"
             opacity="1"
             transform="translate(283.21442)"
             id="g10">
            <line
               stroke="currentColor"
               y2="6"
               id="line10"
               x1="0"
               y1="0"
               x2="0" />
            <text
               fill="currentColor"
               y="9"
               dy="0.70999998em"
               id="text10">1990</text>
          </g>
          <g
             class="tick"
             opacity="1"
             transform="translate(366.35769)"
             id="g11">
            <line
               stroke="currentColor"
               y2="6"
               id="line11"
               x1="0"
               y1="0"
               x2="0" />
            <text
               fill="currentColor"
               y="9"
               dy="0.70999998em"
               id="text11">1995</text>
          </g>
          <g
             class="tick"
             opacity="1"
             transform="translate(449.50095)"
             id="g12">
            <line
               stroke="currentColor"
               y2="6"
               id="line12"
               x1="0"
               y1="0"
               x2="0" />
            <text
               fill="currentColor"
               y="9"
               dy="0.70999998em"
               id="text12">2000</text>
          </g>
          <g
             class="tick"
             opacity="1"
             transform="translate(532.68975)"
             id="g13">
            <line
               stroke="currentColor"
               y2="6"
               id="line13"
               x1="0"
               y1="0"
               x2="0" />
            <text
               fill="currentColor"
               y="9"
               dy="0.70999998em"
               id="text13">2005</text>
          </g>
          <g
             class="tick"
             opacity="1"
             transform="translate(615.83302)"
             id="g14">
            <line
               stroke="currentColor"
               y2="6"
               id="line14"
               x1="0"
               y1="0"
               x2="0" />
            <text
               fill="currentColor"
               y="9"
               dy="0.70999998em"
               id="text14">2010</text>
          </g>
          <g
             class="tick"
             opacity="1"
             transform="translate(698.97628)"
             id="g15">
            <line
               stroke="currentColor"
               y2="6"
               id="line15"
               x1="0"
               y1="0"
               x2="0" />
            <text
               fill="currentColor"
               y="9"
               dy="0.70999998em"
               id="text15">2015</text>
          </g>
        </g>
        <text
           y="553.40009"
           x="764.48004"
           text-anchor="end"
           style="font-weight:bold;font-size:12px;font-family:Arial, sans-serif;fill:#7b7b7b"
           id="text16">Year</text>
        <text
           x="4"
           text-anchor="start"
           dominant-baseline="hanging"
           style="font-weight:bold;font-size:12px;font-family:Arial, sans-serif;fill:#7b7b7b"
           id="text17">Revenue in Millions</text>
        <g
           id="labels">
          <text
             x="236.65208"
             y="229.40308"
             text-anchor="middle"
             alignment-baseline="middle"
             style="font-weight:bold;font-size:16px;font-family:Arial, sans-serif;fill:#000000"
             id="text18">Tape</text>
          <text
             x="449.00095"
             y="248.08624"
             text-anchor="middle"
             alignment-baseline="middle"
             style="font-weight:bold;font-size:16px;font-family:Arial, sans-serif;fill:#000000"
             id="text19">Disc</text>
          <text
             x="597.68115"
             y="344.75848"
             text-anchor="middle"
             alignment-baseline="middle"
             style="font-weight:bold;font-size:13.3333px;font-family:Arial, sans-serif;fill:#000000"
             id="text20">Download</text>
          <text
             x="520.72131"
             y="461.96774"
             text-anchor="middle"
             alignment-baseline="middle"
             style="font-weight:bold;font-size:13.33333333px;font-family:Arial, sans-serif;fill:#000000"
             id="text21">Other</text>
          <text
             x="763.81097"
             y="228.03632"
             text-anchor="end"
             alignment-baseline="middle"
             style="font-weight:bold;font-size:16px;font-family:Arial, sans-serif;fill:#000000"
             id="text22">Streaming</text>
          <text
             x="87.749496"
             y="256.2963"
             text-anchor="middle"
             alignment-baseline="middle"
             style="font-weight:bold;font-size:16px;font-family:Arial, sans-serif;fill:#000000"
             id="text23">Vinyl</text>
        </g>
      </g>
      <text
         x="4"
         y="4"
         style="font-weight:bold;font-size:12px;font-family:Arial, sans-serif;dominant-baseline:hanging;fill:#000000"
         id="text24" />
    </g>
  </g>
</svg>
